<svg width="190" height="61" viewBox="0 0 190 61" fill="none" xmlns="http://www.w3.org/2000/svg">
<path d="M158.955 31.4091C161.534 32.2995 162.933 35.111 161.297 37.5408C159.715 39.8891 156.122 40.1239 153.925 38.7769C152.463 37.8832 151.836 35.7339 153.021 34.3999C153.592 33.7585 154.477 33.565 155.675 33.8194C155.738 33.8324 155.795 33.8658 155.839 33.9149C155.882 33.964 155.909 34.0261 155.916 34.0923C155.923 34.1585 155.91 34.2252 155.878 34.2829C155.846 34.3406 155.796 34.3861 155.738 34.413C153.472 35.4762 154.196 38.5486 156.585 38.7019C158.193 38.8062 159.169 38.0724 159.513 36.5004C159.832 35.0392 159.561 32.3778 157.963 31.8658C157.15 31.6048 156.239 32.218 155.567 32.0451C155.168 31.9408 154.991 31.7114 155.035 31.357C155.043 31.288 155.064 31.2215 155.098 31.1611C155.131 31.1008 155.175 31.0478 155.229 31.0054C155.282 30.9629 155.343 30.9318 155.408 30.9137C155.473 30.8957 155.541 30.8911 155.608 30.9003C157.332 31.1384 158.502 31.2395 159.053 29.1815C160.667 23.164 153.856 24.3186 154.924 27.1724C155.123 27.7041 155.596 27.9454 156.021 28.2944C156.122 28.3748 156.12 28.4531 156.015 28.5292C153.579 30.2644 151.265 25.7961 154.779 24.4132C156.535 23.7218 159.028 23.849 160.481 25.1699C161.968 26.5169 161.849 28.6271 160.547 30.0458C160.137 30.4959 159.482 30.8025 158.924 31.1971C158.798 31.2885 158.808 31.3591 158.955 31.4091Z" fill="#045682"/>
<path d="M167.06 30.7682C167.06 30.7922 167.069 30.8156 167.083 30.835C167.098 30.8545 167.119 30.8692 167.143 30.877C167.166 30.8848 167.192 30.8854 167.216 30.8788C167.241 30.8721 167.262 30.8585 167.278 30.8398C168.752 29.1046 171.342 29.0558 173.143 30.2766C174.947 31.5007 175.597 33.8739 174.964 35.8858C174.007 38.9362 169.946 40.7007 167.118 38.8353C162.216 35.6026 164.259 24.4004 170.729 24.0097C171.846 23.9425 172.875 24.2235 173.817 24.8529C174.862 25.5529 174.661 27.3076 173.064 26.9625C172.339 26.8062 171.989 25.5919 171.339 25.1915C170.232 24.5176 169.109 25.0287 168.421 26.0184C167.437 27.4356 166.983 29.0189 167.06 30.7682ZM167.496 37.162C167.797 38.0561 168.406 38.5705 169.32 38.7051C171.339 38.9981 172.38 37.6047 172.544 35.8044C172.71 34.0237 172.836 30.664 170.494 30.3808C169.805 30.2983 169.131 30.4665 168.473 30.8854C166.396 32.2071 166.764 35.0068 167.496 37.162Z" fill="#045682"/>
<path d="M183.614 39.6C182.826 39.6013 182.046 39.4009 181.317 39.0102C180.588 38.6194 179.926 38.046 179.367 37.3226C178.809 36.5993 178.365 35.7402 178.062 34.7943C177.759 33.8485 177.602 32.8345 177.6 31.8102C177.598 30.7859 177.752 29.7713 178.051 28.8245C178.351 27.8776 178.792 27.017 179.348 26.2918C179.903 25.5665 180.564 24.9909 181.291 24.5976C182.018 24.2044 182.798 24.0013 183.586 24C184.374 23.9987 185.155 24.1991 185.883 24.5898C186.612 24.9806 187.274 25.554 187.833 26.2774C188.391 27.0007 188.835 27.8598 189.138 28.8057C189.441 29.7515 189.598 30.7655 189.6 31.7898C189.602 32.8141 189.448 33.8287 189.149 34.7755C188.849 35.7224 188.408 36.583 187.853 37.3082C187.297 38.0335 186.636 38.6091 185.909 39.0024C185.182 39.3956 184.402 39.5987 183.614 39.6ZM180.879 27.0103C179.997 30.0685 179.932 33.1321 180.684 36.2012C181.516 39.5869 185.811 39.4857 186.54 36.0836C187.202 32.9928 187.146 30.0043 186.372 27.118C185.6 24.2285 181.717 24.098 180.879 27.0103Z" fill="#045682"/>
<path d="M68.8805 25.1102L68.8836 30.8645C68.8834 30.8916 68.8887 30.9185 68.899 30.9434C68.9094 30.9683 68.9247 30.9905 68.9438 31.0088C68.9629 31.027 68.9855 31.0408 69.0101 31.0493C69.0347 31.0577 69.0606 31.0606 69.0864 31.0578C70.6339 30.9011 72.2593 31.0645 72.4621 28.8508C72.4725 28.7691 72.5111 28.6946 72.5704 28.6418C72.6296 28.589 72.7052 28.5618 72.7823 28.5656C72.8593 28.5694 72.9323 28.6038 72.9868 28.6621C73.0413 28.7205 73.0734 28.7985 73.0767 28.8808L73.0705 34.095C73.0721 34.1392 73.0656 34.1833 73.0513 34.2249C73.037 34.2664 73.0151 34.3045 72.987 34.337C72.9589 34.3695 72.9251 34.3958 72.8875 34.4143C72.8499 34.4328 72.8093 34.4433 72.7679 34.445C72.7265 34.4468 72.6852 34.4398 72.6463 34.4245C72.6075 34.4092 72.5718 34.3859 72.5414 34.3559C72.511 34.3258 72.4864 34.2897 72.469 34.2495C72.4517 34.2093 72.4419 34.1659 72.4403 34.1217C72.2874 32.1147 70.6339 31.7379 69.0739 31.878C68.9678 31.8869 68.9127 31.948 68.9085 32.0613C68.8628 33.2193 68.8555 34.3773 68.8867 35.5352C68.9304 37.2022 68.7713 38.3757 70.5122 38.6057C71.6853 38.7591 74.7771 38.9091 75.3886 37.6289C75.686 37.011 75.9439 36.3776 76.1623 35.7286C76.1881 35.6476 76.2408 35.5795 76.3104 35.5372C76.38 35.4948 76.4617 35.4812 76.54 35.4988C76.6184 35.5165 76.688 35.5642 76.7356 35.6329C76.7833 35.7017 76.8058 35.7867 76.7988 35.8719L76.571 39.3559C76.5678 39.4151 76.5433 39.4707 76.5026 39.5111C76.4619 39.5515 76.4082 39.5735 76.3526 39.5726C73.0809 39.5548 69.7977 39.5637 66.5031 39.5992C65.9519 39.6059 65.4673 39.5692 65.0492 39.4892C64.98 39.4753 64.9174 39.4362 64.872 39.3786C64.8266 39.3211 64.8012 39.2485 64.8001 39.1732C64.799 39.098 64.8222 39.0246 64.8659 38.9655C64.9096 38.9065 64.9711 38.8653 65.0399 38.8491L66.5093 38.509C66.561 38.4982 66.6084 38.4712 66.6457 38.4314C66.6829 38.3916 66.7082 38.3409 66.7184 38.2857C66.8286 37.6878 66.8858 36.9366 66.89 36.032C66.9024 32.807 66.8983 29.582 66.8775 26.3571C66.8712 25.2369 66.3159 24.7068 65.2114 24.7668C65.0721 24.7735 64.9983 24.7012 64.9899 24.5501L64.9712 24.24C64.9695 24.21 64.9736 24.18 64.9832 24.1517C64.9927 24.1235 65.0076 24.0976 65.0269 24.0758C65.0462 24.0539 65.0695 24.0365 65.0953 24.0246C65.1212 24.0127 65.149 24.0066 65.1771 24.0067L75.7287 24C75.8431 24 75.9034 24.06 75.9096 24.18L76.0469 27.2605C76.0573 27.4939 75.9533 27.5984 75.7349 27.5739C75.5664 27.5539 75.4489 27.3928 75.3824 27.0905C75.1057 25.8659 74.3663 25.1691 73.1641 25.0002C71.8017 24.8068 70.4331 24.7746 69.0583 24.9035C68.9397 24.9146 68.8805 24.9835 68.8805 25.1102Z" fill="#045682"/>
<path d="M94.1601 26.5929C94.1079 26.5908 94.0713 26.6136 94.0504 26.6613L88.5841 39.4205C88.486 39.6484 88.3701 39.6593 88.2364 39.4531C88.1842 39.3728 88.1163 39.2371 88.0328 39.0461C86.2535 34.9743 84.5108 30.8786 82.8046 26.759C82.7962 26.7347 82.7796 26.7144 82.758 26.7017C82.7364 26.6891 82.7111 26.6849 82.6867 26.6901C82.6624 26.6952 82.6407 26.7093 82.6255 26.7297C82.6103 26.7501 82.6027 26.7755 82.6041 26.8013C82.5686 30.0961 82.5707 33.4104 82.6104 36.7443C82.625 37.9077 83.1439 38.4916 84.1672 38.4959C84.3427 38.4959 84.4711 38.5241 84.5525 38.5806C84.7134 38.6912 84.7729 38.8475 84.7311 39.0494C84.7197 39.1054 84.6901 39.1556 84.6474 39.1918C84.6046 39.2279 84.5513 39.2477 84.4962 39.248L79.459 39.2577C79.2001 39.2577 79.1353 39.1416 79.2648 38.9094L79.4214 38.6359C79.4883 38.5165 79.5875 38.4612 79.719 38.4699C81.6831 38.5806 81.4388 37.1122 81.4639 35.4648C81.5035 32.5694 81.5255 29.6761 81.5296 26.785C81.5296 25.5305 80.9543 24.8707 79.8036 24.8055C79.7612 24.8035 79.7197 24.792 79.682 24.7719C79.6442 24.7518 79.611 24.7235 79.5846 24.689C79.5581 24.6545 79.5392 24.6145 79.5289 24.5717C79.5185 24.5289 79.5172 24.4843 79.5248 24.4409C79.5749 24.1305 79.7587 23.984 80.0761 24.0014C81.3835 24.0795 82.6845 24.1099 83.9793 24.0925C84.0712 24.0904 84.1349 24.1338 84.1704 24.2228L88.8253 35.6081C88.8357 35.6332 88.853 35.6546 88.875 35.6697C88.897 35.6847 88.9227 35.6927 88.9491 35.6927C88.9754 35.6927 89.0012 35.6847 89.0231 35.6697C89.0451 35.6546 89.0624 35.6332 89.0728 35.6081L93.8374 24.3432C93.8709 24.2639 93.926 24.1964 93.9961 24.149C94.0662 24.1016 94.1482 24.0763 94.2321 24.0763L98.0225 24.0665C98.0645 24.0664 98.1054 24.0807 98.1388 24.1072C98.1722 24.1337 98.1963 24.1709 98.2073 24.213C98.2512 24.391 98.223 24.5418 98.1227 24.6656C98.058 24.7437 97.9358 24.8001 97.7562 24.8348C96.8165 25.0172 96.3403 25.7204 96.3278 26.9446C96.2944 29.9268 96.285 32.9101 96.2996 35.8946C96.3038 36.5891 96.3821 37.2761 96.5345 37.9554C96.5638 38.0922 96.6442 38.179 96.7757 38.2159L98.1885 38.6131C98.2464 38.6303 98.2978 38.6656 98.3356 38.7144C98.3734 38.7631 98.3957 38.8229 98.3995 38.8853C98.4033 38.9478 98.3883 39.01 98.3567 39.0632C98.3251 39.1165 98.2784 39.1583 98.223 39.1829C98.0643 39.2501 97.8617 39.286 97.6153 39.2903C95.8255 39.325 94.0368 39.2881 92.2492 39.1796C92.2196 39.1774 92.1911 39.1672 92.1665 39.15C92.1419 39.1327 92.1221 39.1091 92.1091 39.0814C92.0961 39.0536 92.0903 39.0229 92.0924 38.9921C92.0944 38.9614 92.1042 38.9317 92.1208 38.9061L92.3181 38.6099C92.3434 38.5727 92.3771 38.5426 92.4165 38.5221C92.4558 38.5017 92.4995 38.4916 92.5437 38.4927C94.5266 38.574 94.301 37.1057 94.3104 35.4388C94.3292 32.5433 94.3313 29.649 94.3167 26.7557C94.3167 26.7101 94.3052 26.6743 94.2822 26.6483C94.2488 26.6136 94.2081 26.5951 94.1601 26.5929Z" fill="#045682"/>
<path d="M105.001 32.7656L105.095 37.9489C105.096 38.0001 105.108 38.0506 105.13 38.0967C105.153 38.1428 105.185 38.1835 105.224 38.2158C105.834 38.7072 106.513 38.9229 107.261 38.8629C107.645 38.8317 107.81 38.9941 107.756 39.3498C107.745 39.418 107.711 39.4799 107.659 39.5245C107.608 39.5692 107.542 39.5935 107.474 39.5933L100.969 39.6C100.838 39.6 100.783 39.5333 100.805 39.3999L100.876 38.9996C100.883 38.9546 100.904 38.9131 100.935 38.8809C100.966 38.8486 101.007 38.8272 101.05 38.8195L102.486 38.576C102.538 38.5667 102.588 38.5442 102.63 38.5104C102.671 38.4766 102.704 38.4327 102.725 38.3826C102.895 37.9823 102.98 37.4842 102.98 36.8883C102.989 33.7796 102.987 30.6721 102.974 27.5656C102.968 26.0046 103.142 24.6771 101.218 24.8239C101.096 24.835 101.027 24.7772 101.012 24.6504L100.96 24.2168C100.957 24.1895 100.959 24.1618 100.967 24.1356C100.975 24.1094 100.988 24.0852 101.006 24.0647C101.024 24.0441 101.046 24.0278 101.07 24.0166C101.094 24.0055 101.121 23.9998 101.147 24C103.296 24.0267 105.441 24.0378 107.581 24.0334C109.928 24.0267 112.757 25.044 112.799 28.0426C112.867 32.6022 108.247 32.5155 105.224 32.5288C105.194 32.5288 105.165 32.535 105.137 32.5469C105.11 32.5589 105.085 32.5765 105.064 32.5986C105.043 32.6206 105.027 32.6468 105.016 32.6755C105.005 32.7042 105 32.7348 105.001 32.7656ZM105.069 25.2108L105.011 31.2246C105.01 31.2641 105.018 31.3032 105.032 31.3398C105.046 31.3764 105.067 31.4097 105.094 31.4379C105.12 31.4661 105.152 31.4885 105.187 31.504C105.223 31.5195 105.26 31.5277 105.299 31.5282L107.209 31.5515C108.023 31.5597 108.805 31.2705 109.385 30.7477C109.966 30.2248 110.296 29.511 110.303 28.7631L110.313 27.7891C110.317 27.4186 110.241 27.0508 110.091 26.7067C109.94 26.3627 109.717 26.0492 109.435 25.784C109.153 25.5189 108.817 25.3074 108.446 25.1615C108.075 25.0157 107.677 24.9383 107.274 24.9339L105.363 24.9106C105.325 24.9102 105.287 24.9176 105.251 24.9325C105.215 24.9474 105.183 24.9694 105.155 24.9973C105.128 25.0252 105.106 25.0585 105.091 25.0951C105.077 25.1318 105.069 25.1711 105.069 25.2108Z" fill="#045682"/>
<path d="M120.887 35.9689C120.892 35.9859 120.903 36.0008 120.917 36.0114C120.931 36.0221 120.948 36.0278 120.966 36.0278C120.984 36.0278 121.001 36.0221 121.016 36.0114C121.03 36.0008 121.04 35.9859 121.045 35.9689L124.296 26.9603C124.324 26.8837 124.326 26.7989 124.303 26.718C124 25.7268 123.378 25.0239 122.437 24.6091C122.372 24.5806 122.319 24.5307 122.287 24.4679C122.254 24.405 122.245 24.333 122.259 24.2639C122.274 24.1948 122.312 24.1328 122.367 24.0883C122.422 24.0439 122.491 24.0196 122.562 24.0196L128.333 24.0033C128.363 24.0033 128.392 24.0091 128.42 24.0205C128.447 24.0319 128.472 24.0486 128.493 24.0697C128.514 24.0907 128.53 24.1156 128.541 24.143C128.552 24.1704 128.558 24.1997 128.557 24.2292L128.554 24.4716C128.549 24.6004 128.484 24.6746 128.356 24.6942L127.007 24.9071C126.869 24.9311 126.783 25.0108 126.747 25.1461C126.647 25.5347 126.661 25.9451 126.79 26.3774C127.716 29.5058 128.668 32.6637 129.646 35.851C129.656 35.8822 129.676 35.9098 129.702 35.9297C129.729 35.9496 129.76 35.9609 129.793 35.962C129.826 35.963 129.858 35.9539 129.885 35.9357C129.911 35.9176 129.932 35.8914 129.942 35.8608C131.081 32.8045 132.193 29.711 133.279 26.5804C133.408 26.2071 133.432 25.741 133.351 25.1822C133.344 25.1324 133.324 25.0855 133.293 25.0463C133.261 25.0072 133.22 24.9772 133.174 24.9595C132.825 24.8241 132.473 24.7281 132.117 24.6713C132.016 24.6538 131.939 24.6189 131.884 24.5665C131.717 24.3984 131.742 24.2336 131.959 24.072C132.004 24.0381 132.059 24.0197 132.114 24.0196L136.619 24.0033C136.757 24.0033 136.816 24.071 136.796 24.2063L136.754 24.4617C136.734 24.584 136.663 24.6582 136.54 24.6844C134.908 25.0348 134.74 25.9746 134.217 27.3336C132.756 31.1366 131.286 34.9384 129.808 38.7392C129.696 39.0274 129.587 39.2577 129.482 39.4302C129.446 39.4879 129.395 39.5342 129.333 39.5639C129.272 39.5936 129.204 39.6053 129.136 39.5978C129.069 39.5902 129.005 39.5637 128.952 39.5212C128.899 39.4788 128.859 39.4222 128.837 39.3581L125.161 28.5387C125.153 28.5142 125.136 28.4931 125.115 28.478C125.094 28.4629 125.069 28.4547 125.042 28.4543C125.016 28.4539 124.991 28.4615 124.969 28.476C124.947 28.4905 124.931 28.5112 124.921 28.5354L120.9 39.1649C120.773 39.5011 120.55 39.5841 120.232 39.4138C120.059 39.3199 119.902 39.0732 119.762 38.6737C118.367 34.7354 116.957 30.8026 115.534 26.8751C115.088 25.6482 114.275 24.9289 113.092 24.7172C113.004 24.7011 112.926 24.6531 112.872 24.5825C112.819 24.5119 112.793 24.4237 112.802 24.3351C112.81 24.2466 112.851 24.1639 112.917 24.1032C112.983 24.0424 113.069 24.008 113.158 24.0066L119.087 24C119.113 24 119.139 24.0045 119.163 24.0131C119.536 24.1637 119.624 24.3482 119.426 24.5665C119.365 24.6342 119.277 24.6779 119.163 24.6975C118.779 24.7674 118.393 24.8361 118.005 24.9038C117.882 24.9235 117.8 24.9911 117.758 25.1068C117.591 25.5566 117.597 26.0696 117.774 26.6459C118.735 29.8071 119.773 32.9147 120.887 35.9689Z" fill="#045682"/>
<path d="M141.148 32.4786L141.223 37.9055C141.225 38.0361 141.266 38.1633 141.34 38.2703C141.414 38.3773 141.518 38.4593 141.639 38.5055C142.249 38.7388 142.92 38.8533 143.652 38.8488C143.77 38.8488 143.864 38.8744 143.934 38.9255C144.13 39.0744 144.124 39.2455 143.914 39.4388C143.855 39.4926 143.779 39.5233 143.701 39.5255C141.699 39.5944 139.738 39.6155 137.817 39.5888C137.472 39.5822 137.188 39.5277 136.965 39.4255C136.913 39.4008 136.869 39.3606 136.84 39.3101C136.81 39.2597 136.797 39.2014 136.801 39.1429C136.805 39.0844 136.826 39.0286 136.862 38.9826C136.897 38.9367 136.946 38.9028 137.001 38.8855C137.768 38.6521 139.043 38.7955 139.073 37.5388C139.151 33.872 139.175 30.2052 139.145 26.5384C139.134 25.3629 138.559 24.7917 137.421 24.8251C137.261 24.8295 137.168 24.7517 137.142 24.5917C137.079 24.2073 137.195 24.0139 137.493 24.0117C140.937 23.985 143.19 24.0039 144.252 24.0684C146.297 24.1917 149.005 25.2317 149.041 27.7018C149.076 30.0752 147.888 31.4897 145.478 31.9453C145.433 31.9541 145.391 31.9747 145.357 32.005C145.322 32.0354 145.296 32.0743 145.28 32.1181C145.265 32.1619 145.262 32.209 145.27 32.2546C145.278 32.3003 145.298 32.3431 145.327 32.3786C146.608 33.9276 147.87 35.5109 149.113 37.1288C149.845 38.0799 150.837 38.6421 152.089 38.8155C152.179 38.8286 152.261 38.8758 152.318 38.9475C152.376 39.0192 152.405 39.1101 152.399 39.202C152.394 39.2939 152.355 39.3801 152.289 39.4432C152.224 39.5063 152.137 39.5416 152.047 39.5422L148.543 39.5788C148.416 39.5788 148.313 39.5288 148.234 39.4288C146.578 37.2777 144.934 35.1243 143.301 32.9686C142.875 32.4042 142.226 32.1642 141.354 32.2486C141.216 32.262 141.148 32.3386 141.148 32.4786ZM141.144 25.2817L141.164 30.8486C141.165 30.9488 141.205 31.0446 141.275 31.1151C141.345 31.1857 141.439 31.2253 141.538 31.2253L143.37 31.2186C143.783 31.2174 144.192 31.1473 144.573 31.0123C144.954 30.8773 145.3 30.6801 145.591 30.4318C145.883 30.1835 146.113 29.8891 146.271 29.5654C146.428 29.2417 146.508 28.895 146.507 28.5452L146.5 27.5451C146.497 26.8395 146.164 26.1641 145.573 25.6673C144.983 25.1704 144.183 24.8927 143.35 24.8951L141.518 24.8984C141.469 24.8984 141.42 24.9083 141.374 24.9276C141.329 24.9469 141.287 24.9752 141.253 25.0109C141.218 25.0465 141.19 25.0888 141.172 25.1353C141.153 25.1818 141.144 25.2316 141.144 25.2817Z" fill="#045682"/>
<path d="M21.0579 6.50837C21.0796 6.477 21.0796 6.44563 21.0579 6.41668C21.0362 6.38531 21.0072 6.37566 20.9685 6.38772C12.1863 9.14086 5.40452 16.3096 3.02958 25.1313C0.183508 35.7071 4.21826 47.3156 13.114 53.8474C19.2773 58.3692 26.2064 60.0848 33.9015 58.9869C40.0816 58.1062 46.1942 54.7136 50.3086 50.0446C63.5726 34.988 57.1943 11.6793 38.301 5.12094C38.2841 5.11612 38.2841 5.11129 38.301 5.11129C38.3179 5.11129 38.3324 5.10888 38.3493 5.10888C38.359 5.10647 38.3687 5.10647 38.3783 5.10888C43.8313 6.90892 48.8083 10.2967 52.256 14.9101C54.8725 18.4137 56.8343 22.7473 57.5422 27.1461C57.7041 28.145 57.9094 29.1777 57.9626 30.1501C58.3443 36.9594 56.6048 43.0882 52.7488 48.5366C48.2816 54.8463 41.1157 59.2765 33.4424 60.4009C32.5437 60.5336 31.4081 60.6012 30.0358 60.6012C28.463 60.6036 26.8153 60.6663 25.3173 60.4564C16.7816 59.262 9.38612 54.5447 4.65797 47.3784C0.92281 41.7177 -0.686259 34.4572 0.270484 27.7396C1.32145 20.344 4.70146 14.1887 10.4057 9.27357C13.4281 6.66762 16.8854 4.7759 20.7776 3.60322C20.8139 3.59115 20.8429 3.57426 20.8646 3.55013C20.8936 3.52118 20.9129 3.4874 20.925 3.4512C20.9371 3.41501 20.9274 3.38606 20.8984 3.36434L17.1415 0.707717C17.1005 0.678762 17.086 0.637743 17.0981 0.589484C17.1101 0.541226 17.1415 0.512271 17.1923 0.505032C18.2626 0.353018 19.299 0.193766 20.3065 0.0248616C20.6158 -0.0282223 21.0337 -0.00891891 21.3478 0.208243C23.0294 1.37851 24.7109 2.5536 26.3949 3.73593C26.448 3.77212 26.4553 3.81797 26.4166 3.86864L22.6911 9.11191C22.609 9.22532 22.5003 9.29529 22.365 9.32183L18.6516 9.9878C18.6322 9.99262 18.6153 9.98538 18.6056 9.96608C18.5936 9.94678 18.596 9.92989 18.6081 9.913L21.0579 6.50837Z" fill="#5B1881"/>
<path d="M36.4507 4.33311L38.085 5.10793C38.0998 5.11553 38.1023 5.13832 38.0948 5.1763C38.0948 5.1801 38.0948 5.1801 38.0948 5.18389C38.0924 5.19149 38.0924 5.19529 38.0924 5.19529L36.4137 4.41287C36.4038 4.41287 36.3988 4.41667 36.3939 4.43186C36.3544 4.60278 36.3593 4.58379 36.4038 4.37489C36.4112 4.33691 36.426 4.32171 36.4507 4.33311Z" fill="#5B1881"/>
<path d="M20.345 50.7675C20.2783 50.9493 20.2926 51.1287 20.3902 51.3056C20.4235 51.3645 20.4164 51.421 20.3688 51.4702L19.9499 51.9198C19.9237 51.9493 19.8904 51.9591 19.8523 51.9493C19.8118 51.9394 19.788 51.9149 19.7785 51.8755C19.481 50.7503 19.4239 49.6153 19.6071 48.4679C19.738 47.6228 19.1144 46.7064 20.0355 46.1069C20.0855 46.075 20.1117 46.0258 20.1117 45.9644V41.8025C20.1117 41.7166 20.0736 41.6527 19.9998 41.6134C18.6908 40.9304 17.4484 40.1147 16.2726 39.1639C15.9822 38.9256 16.0155 38.7512 16.0131 38.3998C15.9989 36.8447 15.9632 35.2919 15.9084 33.7392C15.9013 33.5599 15.8204 33.4321 15.668 33.3535L8.79903 29.7911C8.74428 29.7616 8.70382 29.7174 8.68002 29.6609C8.65622 29.6019 8.65146 29.5405 8.6705 29.4791C8.7181 29.3169 8.82759 29.2186 8.99896 29.1843C9.18461 29.1449 9.31075 29.1056 9.3774 29.0712C15.53 25.7987 21.6207 22.4009 27.7447 19.0744C27.7947 19.0449 27.8471 19.0425 27.9018 19.0621C32.4788 20.7475 36.9915 22.5975 41.4423 24.6096C43.8105 25.6808 46.2287 26.9706 48.6183 28.1622C48.8016 28.2556 49.0991 28.2654 49.2943 28.4226C49.3419 28.4619 49.3609 28.5111 49.3538 28.5725C49.3228 28.8157 49.2062 28.9803 49.0063 29.0663C47.007 29.9287 44.9053 30.8574 42.7037 31.8573C42.5181 31.9433 42.4253 32.0882 42.4253 32.2971L42.3848 37.906C42.3848 38.0043 42.3467 38.0829 42.2706 38.1419C38.6409 40.9451 34.5518 42.6649 30.0082 43.3037C26.8141 43.7508 23.6724 43.2791 20.5877 41.891C20.5663 41.8812 20.5473 41.8836 20.5282 41.8959C20.5068 41.9082 20.4973 41.9278 20.4973 41.9499L20.4711 45.9472C20.4711 46.0135 20.4901 46.0725 20.533 46.1241C20.8162 46.4779 20.9043 46.8415 20.8019 47.2125C20.6258 47.8488 20.6091 48.3918 20.7543 48.8364C20.9566 49.4605 21.0399 50.1361 21.0042 50.8609C21.0019 50.9002 20.99 50.937 20.9709 50.9714C20.9495 51.0034 20.9233 51.0304 20.89 51.0501C20.8567 51.0697 20.821 51.0795 20.7829 51.0795C20.7424 51.0795 20.7067 51.0697 20.6734 51.0501C20.5663 50.9911 20.4973 50.8977 20.4592 50.7724C20.4259 50.6545 20.3878 50.652 20.345 50.7675ZM28.8729 27.7175L28.8562 27.7912C28.8396 27.8527 28.8039 27.8969 28.7468 27.9165C26.2429 28.8772 23.8794 30.1105 21.6516 31.6141C20.3616 32.4862 19.5238 33.0464 19.8166 34.6802C19.8332 34.7785 19.888 34.8497 19.9737 34.8964C22.3657 36.1322 24.7743 37.3852 27.1997 38.648C27.2877 38.6971 27.3687 38.7241 27.4401 38.734C27.5519 38.7512 27.6376 38.7413 27.6995 38.7094C31.0388 36.9478 34.4043 35.2379 37.7959 33.582C41.2923 31.8745 44.7744 30.1744 48.3375 28.6388C48.366 28.6241 48.3803 28.602 48.3827 28.57C48.3827 28.5381 48.3708 28.516 48.3422 28.5013C44.7316 26.5972 41.0734 24.8529 37.3699 23.2682C34.371 21.9833 31.3863 20.7278 28.4183 19.4994C28.216 19.4159 28.0161 19.4282 27.8233 19.5314L9.55828 29.3145C9.47498 29.3611 9.47498 29.4054 9.55828 29.4496L19.3215 34.577C19.3572 34.5967 19.3929 34.5942 19.4262 34.5696C19.4596 34.5451 19.4738 34.5107 19.4691 34.4689C19.331 33.3584 19.7047 32.4838 20.5925 31.8425C23.1106 30.0147 25.8454 28.6143 28.7896 27.6414C28.8134 27.634 28.8348 27.6389 28.8539 27.6561C28.8729 27.6733 28.8777 27.693 28.8729 27.7175ZM42.0135 32.1816C37.4984 34.2748 33.0357 36.599 28.6563 38.9747C28.1874 39.2302 27.8376 39.412 27.6067 39.5201C27.5519 39.5447 27.4972 39.5447 27.4448 39.5177L20.0903 35.6899C20.0593 35.6727 20.0284 35.6752 19.9998 35.6973C19.9713 35.717 19.9594 35.7465 19.9618 35.7808L20.5116 41.3849C20.5187 41.4537 20.5544 41.5003 20.6139 41.5274C24.0294 42.972 27.5519 43.3602 31.184 42.687C35.0541 41.9696 38.56 40.4095 41.7065 38.0043C41.9326 37.8323 42.0183 37.68 42.0183 37.3999C42.0111 35.6949 42.0397 33.9751 42.0992 32.2406C42.1016 32.2184 42.092 32.1988 42.073 32.1865C42.054 32.1742 42.0349 32.1718 42.0135 32.1816ZM16.3606 39.1123C16.3606 39.1344 16.3702 39.1492 16.3892 39.159L20.0593 41.3579C20.0784 41.3701 20.0974 41.3701 20.1165 41.3579C20.1379 41.3456 20.145 41.3259 20.1426 41.3038L19.5762 35.4271C19.5738 35.4074 19.5643 35.3902 19.5452 35.3828L16.2036 33.6336C16.1845 33.6262 16.1679 33.6262 16.1512 33.6385C16.1345 33.6483 16.125 33.6655 16.125 33.6852L16.3606 39.1123ZM20.1355 47.9643C20.2236 47.9667 20.3021 47.8906 20.3711 47.7358C20.4402 47.5786 20.4782 47.3894 20.4854 47.1658C20.4925 46.9422 20.4687 46.7506 20.4092 46.5909C20.3521 46.4312 20.2783 46.3501 20.1902 46.3452C20.0998 46.3428 20.0213 46.4189 19.9546 46.5762C19.8856 46.7309 19.8475 46.9201 19.8404 47.1437C19.8332 47.3673 19.857 47.5589 19.9142 47.7186C19.9737 47.8783 20.0451 47.9594 20.1355 47.9643ZM20.6187 49.3401C20.6187 49.2885 20.5925 49.2639 20.5449 49.2639H20.5377C20.4878 49.2639 20.464 49.291 20.464 49.3401L20.4735 50.399C20.4735 50.4506 20.4997 50.4752 20.5473 50.4752H20.5544C20.6044 50.4752 20.6282 50.4506 20.6282 50.399L20.6187 49.3401Z" fill="#045682"/>
<path d="M34.7525 22.5238L45.845 28.4066C45.8918 28.4316 45.9036 28.4691 45.8801 28.5166L45.8778 28.5241C45.8544 28.5741 45.8193 28.5866 45.7725 28.5616L34.6799 22.6788C34.6355 22.6563 34.6238 22.6188 34.6472 22.5688L34.6495 22.5613C34.6729 22.5138 34.7057 22.5013 34.7525 22.5238Z" fill="#045682"/>
<path d="M12.1757 28.377L18.8981 24.2619C18.9519 24.2301 18.9964 24.2424 19.0291 24.2985L19.0315 24.3058C19.0642 24.3619 19.0525 24.4083 18.9964 24.4425L12.2763 28.5552C12.2202 28.5894 12.1757 28.5772 12.1453 28.5186L12.1406 28.5137C12.1078 28.4551 12.1195 28.4112 12.1757 28.377Z" fill="#045682"/>
<path d="M12.1543 29.3179L14.6253 27.7214C14.6597 27.6986 14.6856 27.7055 14.7071 27.7418L14.7092 27.7441C14.7286 27.7804 14.7222 27.8077 14.6899 27.8304L12.2167 29.4269C12.1844 29.4496 12.1564 29.4428 12.1371 29.4065L12.1349 29.4042C12.1134 29.3679 12.1198 29.3406 12.1543 29.3179Z" fill="#045682"/>
</svg>
