<?xml version="1.0" encoding="UTF-8" standalone="no"?>
<!DOCTYPE svg PUBLIC "-//W3C//DTD SVG 1.1//EN" "http://www.w3.org/Graphics/SVG/1.1/DTD/svg11.dtd">
<svg xmlns="http://www.w3.org/2000/svg" version="1.1" viewBox="0.00 0.00 500.00 500.00">
<path fill="#5b1881" d="
  M 213.65 73.51
  A 0.47 0.46 9.1 0 0 213.13 72.80
  C 161.68 88.96 121.95 131.01 108.04 182.75
  C 91.36 244.78 115.00 312.87 167.11 351.18
  Q 221.26 390.98 288.89 381.33
  C 325.09 376.16 360.90 356.27 385.00 328.88
  C 462.70 240.57 425.34 103.85 314.66 65.38
  Q 314.51 65.33 314.66 65.32
  Q 314.80 65.31 314.94 65.30
  Q 315.02 65.28 315.11 65.31
  C 347.06 75.86 376.21 95.74 396.40 122.80
  C 411.74 143.35 423.23 168.76 427.38 194.57
  C 428.32 200.42 429.52 206.48 429.84 212.18
  Q 433.18 272.09 399.30 320.03
  C 373.13 357.05 331.14 383.03 286.19 389.63
  Q 278.30 390.79 266.24 390.80
  C 257.03 390.81 247.37 391.18 238.60 389.95
  C 188.60 382.95 145.27 355.27 117.58 313.24
  C 95.69 280.03 86.27 237.45 91.87 198.05
  Q 101.12 132.97 151.24 89.73
  Q 177.80 66.80 212.00 56.47
  Q 212.33 56.37 212.52 56.16
  Q 212.76 55.90 212.87 55.58
  A 0.45 0.44 -63.2 0 0 212.71 55.07
  L 190.71 39.49
  A 0.66 0.66 0.0 0 1 191.00 38.30
  Q 200.40 36.97 209.24 35.48
  C 211.06 35.17 213.51 35.29 215.34 36.56
  Q 230.12 46.86 244.91 57.25
  A 0.56 0.55 36.0 0 1 245.04 58.03
  L 223.21 88.79
  A 3.02 3.00 -77.4 0 1 221.30 90.01
  L 199.55 93.92
  A 0.28 0.26 -76.3 0 1 199.30 93.48
  L 213.65 73.51
  Z"
/>
<path fill="#5b1881" d="
  M 303.93 61.80
  L 313.30 64.69
  Q 313.42 64.72 313.36 64.94
  Q 313.36 64.95 313.36 64.96
  Q 313.34 65.01 313.34 65.01
  L 303.72 62.10
  Q 303.64 62.08 303.61 62.16
  Q 303.27 63.13 303.66 61.95
  Q 303.72 61.74 303.93 61.80
  Z"
/>
<path fill="#045682" d="
  M 208.53 331.00
  Q 207.92 332.58 208.79 334.10
  A 0.79 0.79 0.0 0 1 208.67 335.05
  L 206.18 337.64
  A 0.61 0.61 0.0 0 1 205.15 337.38
  Q 202.50 327.67 204.13 317.75
  C 204.92 312.89 201.20 307.61 206.68 304.16
  Q 207.14 303.87 207.14 303.33
  L 207.14 279.36
  A 1.22 1.22 0.0 0 0 206.47 278.27
  Q 194.80 272.37 184.31 264.15
  C 182.58 262.79 182.78 261.78 182.76 259.75
  Q 182.64 246.32 182.14 232.90
  Q 182.08 231.37 180.71 230.68
  L 139.87 210.16
  A 1.51 1.51 0.0 0 1 139.10 208.37
  Q 139.53 206.96 141.05 206.66
  Q 142.72 206.32 143.30 206.02
  C 179.89 187.17 216.11 167.59 252.53 148.42
  Q 252.98 148.18 253.46 148.35
  Q 294.29 162.93 333.97 180.31
  C 348.06 186.48 362.44 193.92 376.65 200.78
  C 377.74 201.31 379.51 201.38 380.67 202.28
  Q 381.09 202.61 381.02 203.14
  Q 380.74 205.25 378.96 205.99
  Q 361.11 213.43 341.48 222.07
  A 2.79 2.78 -11.8 0 0 339.82 224.60
  L 339.58 256.91
  A 1.70 1.70 0.0 0 1 338.90 258.27
  Q 306.52 282.49 265.99 288.00
  Q 237.49 291.87 209.97 279.86
  A 0.39 0.39 0.0 0 0 209.43 280.21
  L 209.28 303.24
  Q 209.27 303.81 209.64 304.25
  Q 212.16 307.32 211.24 310.52
  Q 209.67 316.03 210.96 319.88
  Q 212.77 325.27 212.44 331.54
  A 1.32 1.32 0.0 0 1 210.48 332.63
  Q 209.53 332.11 209.21 331.03
  Q 208.91 330.01 208.53 331.00
  Z
  M 259.23 198.22
  L 259.13 198.64
  Q 259.00 199.18 258.48 199.37
  Q 236.16 207.67 216.30 220.67
  C 208.62 225.69 203.64 228.92 205.38 238.32
  A 1.76 1.75 -82.1 0 0 206.32 239.57
  Q 227.65 250.26 249.28 261.19
  Q 250.08 261.60 250.71 261.68
  Q 251.71 261.82 252.26 261.54
  Q 282.05 246.31 312.30 232.00
  C 333.09 222.16 353.79 212.37 374.98 203.52
  A 0.44 0.44 0.0 0 0 375.01 202.73
  Q 342.80 186.29 309.76 172.58
  Q 283.01 161.49 256.53 150.88
  A 4.26 4.26 0.0 0 0 252.99 151.06
  L 144.38 207.42
  Q 143.63 207.81 144.38 208.19
  L 202.44 237.73
  A 0.60 0.60 0.0 0 0 203.31 237.11
  Q 202.09 227.52 209.99 221.98
  Q 232.47 206.19 258.74 197.78
  A 0.38 0.37 -2.4 0 1 259.23 198.22
  Z
  M 337.37 223.93
  C 310.52 235.99 283.99 249.38 257.94 263.07
  Q 253.76 265.27 251.70 266.21
  A 1.12 1.10 45.6 0 1 250.74 266.19
  L 207.01 244.14
  A 0.53 0.53 0.0 0 0 206.25 244.67
  L 209.52 276.95
  A 1.00 1.00 0.0 0 0 210.13 277.77
  Q 240.58 290.26 272.98 284.45
  Q 307.49 278.26 335.55 257.48
  C 336.89 256.49 337.40 255.61 337.40 254.00
  Q 337.34 239.25 337.89 224.28
  A 0.37 0.37 0.0 0 0 337.37 223.93
  Z
  M 184.83 263.86
  A 0.33 0.33 0.0 0 0 185.00 264.13
  L 206.82 276.80
  A 0.33 0.33 0.0 0 0 207.32 276.48
  L 203.95 242.63
  A 0.33 0.33 0.0 0 0 203.77 242.37
  L 183.90 232.30
  A 0.33 0.33 0.0 0 0 183.43 232.60
  L 184.83 263.86
  Z
  M 207.2774 314.8472
  A 4.66 1.92 92.0 0 0 209.3588 310.2570
  A 4.66 1.92 92.0 0 0 207.6026 305.5328
  A 4.66 1.92 92.0 0 0 205.5212 310.1230
  A 4.66 1.92 92.0 0 0 207.2774 314.8472
  Z
  M 210.1534 322.7761
  A 0.44 0.44 0.0 0 0 209.7095 322.3400
  L 209.6695 322.3403
  A 0.44 0.44 0.0 0 0 209.2334 322.7841
  L 209.2866 328.8839
  A 0.44 0.44 0.0 0 0 209.7305 329.3200
  L 209.7705 329.3197
  A 0.44 0.44 0.0 0 0 210.2066 328.8759
  L 210.1534 322.7761
  Z"
/>
<rect fill="#045682" x="-37.91" y="-0.49" transform="translate(326.17,186.31) rotate(26.4)" width="75.82" height="0.98" rx="0.47"/>
<rect fill="#045682" x="-24.15" y="-0.60" transform="translate(180.17,192.27) rotate(-30.4)" width="48.30" height="1.20" rx="0.58"/>
<rect fill="#045682" x="-9.92" y="-0.40" transform="translate(169.84,202.88) rotate(-31.5)" width="19.84" height="0.80" rx="0.39"/>
<rect fill="#045682" x="-0.70" y="-13.26" transform="translate(334.17,242.42) rotate(-1.8)" width="1.40" height="26.52" rx="0.62"/>
<ellipse fill="#045682" cx="0.00" cy="0.00" transform="translate(329.95,238.69) rotate(89.2)" rx="5.59" ry="0.63"/>
<path fill="#045682" d="
  M 359.50 445.11
  C 367.68 447.84 372.12 456.46 366.93 463.91
  C 361.91 471.11 350.51 471.83 343.54 467.70
  C 338.90 464.96 336.91 458.37 340.67 454.28
  Q 343.39 451.33 349.09 452.50
  A 0.96 0.96 0.0 0 1 349.29 454.32
  C 342.10 457.58 344.40 467.00 351.98 467.47
  Q 359.63 467.95 361.27 460.72
  C 362.28 456.24 361.42 448.08 356.35 446.51
  C 353.77 445.71 350.88 447.59 348.75 447.06
  Q 346.85 446.58 347.06 444.95
  A 1.62 1.61 7.4 0 1 348.88 443.55
  C 354.35 444.28 358.06 444.59 359.81 438.28
  C 364.93 419.83 343.32 423.37 346.71 432.12
  C 347.34 433.75 348.84 434.49 350.19 435.56
  Q 350.67 435.93 350.17 436.28
  C 342.44 441.60 335.10 427.90 346.25 423.66
  C 351.82 421.54 359.73 421.93 364.34 425.98
  C 369.06 430.11 368.68 436.58 364.55 440.93
  C 363.25 442.31 361.17 443.25 359.40 444.46
  Q 358.80 444.88 359.50 445.11
  Z"
/>
<path fill="#045682" d="
  M 384.65 443.15
  A 0.36 0.36 0.0 0 0 385.29 443.37
  C 389.62 438.04 397.23 437.89 402.52 441.64
  C 407.82 445.40 409.73 452.69 407.87 458.87
  C 405.06 468.24 393.13 473.66 384.82 467.93
  C 370.42 458.00 376.42 423.59 395.43 422.39
  Q 400.35 422.08 404.50 424.98
  C 407.57 427.13 406.98 432.52 402.29 431.46
  C 400.16 430.98 399.13 427.25 397.22 426.02
  C 393.97 423.95 390.67 425.52 388.65 428.56
  Q 384.31 435.09 384.65 443.15
  Z
  M 385.93 462.79
  Q 387.26 466.91 391.29 467.53
  C 397.22 468.43 400.28 464.15 400.76 458.62
  C 401.25 453.15 401.62 442.83 394.74 441.96
  Q 391.70 441.58 388.80 443.51
  C 382.70 447.57 383.78 456.17 385.93 462.79
  Z"
/>
<path fill="#045682" d="
  M 433.8817 470.2900
  A 23.89 17.88 89.9 0 1 415.9600 446.4312
  A 23.89 17.88 89.9 0 1 433.7983 422.5100
  A 23.89 17.88 89.9 0 1 451.7200 446.3688
  A 23.89 17.88 89.9 0 1 433.8817 470.2900
  Z
  M 425.73 431.73
  Q 421.79 445.78 425.15 459.88
  C 427.63 470.25 440.43 469.94 442.60 459.52
  Q 445.56 445.32 442.10 432.06
  C 439.80 423.21 428.23 422.81 425.73 431.73
  Z"
/>
<path fill="#045682" d="
  M 80.00 426.24
  L 80.01 443.50
  A 0.59 0.58 -3.1 0 0 80.66 444.08
  C 85.62 443.61 90.83 444.10 91.48 437.46
  A 0.99 0.99 0.0 0 1 93.45 437.55
  L 93.43 453.19
  A 1.01 1.01 0.0 0 1 91.41 453.27
  C 90.92 447.25 85.62 446.12 80.62 446.54
  Q 80.11 446.58 80.09 447.09
  Q 79.87 452.30 80.02 457.51
  C 80.16 462.51 79.65 466.03 85.23 466.72
  C 88.99 467.18 98.90 467.63 100.86 463.79
  Q 102.29 461.01 103.34 458.09
  A 1.05 1.05 0.0 0 1 105.38 458.52
  L 104.65 468.97
  A 0.69 0.69 0.0 0 1 103.95 469.62
  Q 88.22 469.54 72.38 469.70
  Q 69.73 469.73 67.72 469.37
  A 0.98 0.98 0.0 0 1 67.69 467.45
  L 72.40 466.43
  A 0.85 0.85 0.0 0 0 73.07 465.76
  Q 73.60 463.07 73.62 459.00
  Q 73.68 444.49 73.58 429.98
  Q 73.55 424.94 68.24 425.21
  Q 67.57 425.24 67.53 424.56
  L 67.47 423.63
  A 0.66 0.66 0.0 0 1 68.13 422.93
  L 101.95 422.91
  Q 102.50 422.91 102.53 423.45
  L 102.97 432.69
  Q 103.02 433.74 101.97 433.63
  Q 101.16 433.54 100.84 432.18
  Q 99.51 426.67 93.73 425.91
  Q 87.18 425.04 80.57 425.62
  Q 80.00 425.67 80.00 426.24
  Z"
/>
<path fill="#045682" d="
  M 158.47 430.68
  Q 158.22 430.67 158.12 430.89
  L 140.67 470.08
  Q 140.20 471.13 139.56 470.18
  Q 139.31 469.81 138.91 468.93
  Q 130.39 450.17 122.22 431.19
  A 0.33 0.33 0.0 0 0 121.58 431.32
  Q 121.41 446.50 121.60 461.86
  Q 121.67 467.22 126.57 467.24
  Q 127.41 467.24 127.80 467.50
  Q 128.57 468.01 128.37 468.94
  A 0.77 0.77 0.0 0 1 127.62 469.55
  L 111.54 469.58
  Q 110.30 469.58 110.92 468.51
  L 111.42 467.67
  Q 111.74 467.12 112.37 467.16
  C 118.64 467.50 117.86 462.99 117.94 457.93
  Q 118.13 444.59 118.15 431.27
  Q 118.15 425.49 112.64 425.19
  A 0.95 0.95 0.0 0 1 111.75 424.07
  Q 111.99 422.64 113.51 422.72
  Q 119.77 423.08 125.97 423.00
  Q 126.41 422.99 126.58 423.40
  L 141.44 458.37
  A 0.43 0.43 0.0 0 0 142.23 458.37
  L 157.44 423.77
  A 1.38 1.37 11.8 0 1 158.70 422.95
  L 170.80 422.92
  A 0.61 0.61 0.0 0 1 171.39 423.37
  Q 171.60 424.19 171.12 424.76
  Q 170.81 425.12 169.95 425.28
  Q 165.45 426.12 165.39 431.76
  Q 165.23 445.50 165.30 459.25
  Q 165.32 462.45 166.05 465.58
  Q 166.19 466.21 166.82 466.38
  L 171.33 467.60
  A 0.93 0.93 0.0 0 1 171.44 469.35
  Q 170.68 469.66 169.50 469.68
  Q 160.93 469.84 152.37 469.34
  A 0.54 0.54 0.0 0 1 151.96 468.50
  L 152.59 467.59
  A 0.86 0.85 17.8 0 1 153.31 467.23
  C 159.64 467.48 158.92 462.97 158.95 457.85
  Q 159.04 444.51 158.97 431.18
  Q 158.97 430.97 158.86 430.85
  Q 158.70 430.69 158.47 430.68
  Z"
/>
<path fill="#045682" d="
  M 190.26 449.14
  L 190.55 464.68
  A 1.06 1.04 19.0 0 0 190.95 465.48
  Q 193.78 467.69 197.25 467.42
  Q 199.03 467.28 198.78 468.88
  A 0.88 0.87 4.6 0 1 197.91 469.61
  L 177.79 469.63
  Q 177.18 469.63 177.28 469.03
  L 177.50 467.83
  A 0.66 0.66 0.0 0 1 178.04 467.29
  L 182.48 466.56
  A 0.99 0.98 6.6 0 0 183.22 465.98
  Q 184.01 464.18 184.01 461.50
  Q 184.05 447.52 183.99 433.55
  C 183.97 428.87 184.51 424.89 178.56 425.33
  Q 177.99 425.38 177.92 424.81
  L 177.76 423.51
  A 0.58 0.58 0.0 0 1 178.34 422.86
  Q 188.31 422.98 198.24 422.96
  C 205.50 422.94 214.25 425.99 214.38 434.98
  C 214.59 448.65 200.30 448.39 190.95 448.43
  A 0.69 0.69 0.0 0 0 190.26 449.14
  Z
  M 190.47 426.49
  L 190.29 444.52
  A 0.90 0.90 0.0 0 0 191.18 445.43
  L 197.09 445.50
  A 9.49 8.46 0.6 0 0 206.66 437.14
  L 206.69 434.22
  A 9.49 8.46 0.6 0 0 197.29 425.66
  L 191.38 425.59
  A 0.90 0.90 0.0 0 0 190.47 426.49
  Z"
/>
<path fill="#045682" d="
  M 239.96 459.45
  A 0.25 0.25 0.0 0 0 240.44 459.45
  L 250.32 431.94
  A 1.23 1.16 48.2 0 0 250.34 431.20
  Q 248.96 426.66 244.67 424.76
  A 0.94 0.94 0.0 0 1 245.05 422.96
  L 262.59 422.91
  A 0.68 0.68 0.0 0 1 263.27 423.60
  L 263.26 424.34
  Q 263.24 424.93 262.66 425.02
  L 258.56 425.67
  Q 257.93 425.78 257.77 426.40
  Q 257.31 428.18 257.90 430.16
  Q 262.12 444.49 266.58 459.09
  A 0.48 0.47 46.8 0 0 267.48 459.12
  Q 272.67 445.12 277.62 430.78
  Q 278.21 429.07 277.84 426.51
  A 0.86 0.85 -83.6 0 0 277.30 425.83
  Q 275.71 425.21 274.09 424.95
  Q 273.63 424.87 273.38 424.63
  Q 272.62 423.86 273.61 423.12
  A 0.79 0.77 -63.1 0 1 274.08 422.96
  L 287.77 422.91
  Q 288.40 422.91 288.31 423.53
  L 288.18 424.31
  Q 288.09 424.87 287.53 424.99
  C 282.57 426.06 282.06 428.93 280.47 433.08
  Q 273.81 450.50 267.07 467.91
  Q 266.56 469.23 266.08 470.02
  A 1.09 1.09 0.0 0 1 264.12 469.80
  L 252.95 436.76
  A 0.39 0.39 0.0 0 0 252.22 436.75
  L 240.00 469.21
  Q 239.42 470.75 237.97 469.97
  Q 237.18 469.54 236.54 467.71
  Q 230.18 449.67 223.69 431.68
  Q 221.66 426.06 216.27 425.09
  A 1.10 1.09 -39.8 0 1 216.47 422.92
  L 234.49 422.90
  A 0.70 0.65 -33.0 0 1 234.72 422.94
  Q 236.42 423.63 235.52 424.63
  Q 235.24 424.94 234.72 425.03
  Q 232.97 425.35 231.20 425.66
  Q 230.64 425.75 230.45 426.28
  Q 229.69 428.34 230.50 430.98
  Q 234.88 445.46 239.96 459.45
  Z"
/>
<path fill="#045682" d="
  M 303.40 448.32
  L 303.63 464.60
  A 1.96 1.95 9.9 0 0 304.90 466.40
  Q 307.69 467.45 311.04 467.43
  Q 311.58 467.43 311.90 467.66
  Q 312.80 468.33 311.84 469.20
  A 1.03 1.01 -66.2 0 1 311.19 469.46
  Q 302.03 469.77 293.24 469.65
  Q 291.66 469.62 290.64 469.16
  A 0.87 0.87 0.0 0 1 290.75 467.54
  C 293.09 466.84 296.98 467.27 297.07 463.50
  Q 297.43 447.00 297.29 430.50
  Q 297.24 425.21 292.03 425.36
  Q 291.30 425.38 291.18 424.66
  Q 290.89 422.93 292.25 422.92
  Q 308.01 422.80 312.87 423.09
  C 319.11 423.46 327.37 426.58 327.48 433.99
  Q 327.64 444.67 316.61 446.72
  A 0.80 0.80 0.0 0 0 316.15 448.02
  Q 322.01 454.99 327.70 462.27
  Q 331.05 466.55 336.78 467.33
  A 1.10 1.09 48.5 0 1 336.65 469.51
  L 325.96 469.62
  Q 325.38 469.62 325.02 469.17
  Q 317.44 459.49 309.97 449.79
  Q 308.02 447.25 304.03 447.63
  Q 303.40 447.69 303.40 448.32
  Z
  M 303.39 426.73
  L 303.45 443.43
  A 1.14 1.14 0.0 0 0 304.59 444.56
  L 310.18 444.54
  A 9.59 7.99 -0.2 0 0 319.75 436.52
  L 319.73 433.52
  A 9.59 7.99 -0.2 0 0 310.12 425.57
  L 304.53 425.58
  A 1.14 1.14 0.0 0 0 303.39 426.73
  Z"
/>
</svg>
