<svg width="24" height="25" viewBox="0 0 24 25" fill="none" xmlns="http://www.w3.org/2000/svg">
<g id="arrow_drop_down">
<mask id="mask0_350_2613" style="mask-type:alpha" maskUnits="userSpaceOnUse" x="0" y="0" width="24" height="25">
<rect id="Bounding box" y="0.5" width="24" height="24" fill="#D9D9D9"/>
</mask>
<g mask="url(#mask0_350_2613)">
<path id="arrow_drop_down_2" d="M11.3005 14.8L8.70046 12.2C8.3838 11.8833 8.31296 11.5208 8.48796 11.1125C8.66296 10.7042 8.97546 10.5 9.42546 10.5H14.5755C15.0255 10.5 15.338 10.7042 15.513 11.1125C15.688 11.5208 15.6171 11.8833 15.3005 12.2L12.7005 14.8C12.6005 14.9 12.4921 14.975 12.3755 15.025C12.2588 15.075 12.1338 15.1 12.0005 15.1C11.8671 15.1 11.7421 15.075 11.6255 15.025C11.5088 14.975 11.4005 14.9 11.3005 14.8Z" fill="#1C1B1F"/>
</g>
</g>
</svg>
