<svg width="17" height="16" viewBox="0 0 17 16" fill="none" xmlns="http://www.w3.org/2000/svg">
<path fill-rule="evenodd" clip-rule="evenodd" d="M10.6326 8.53333H9.03255C8.73922 8.53333 8.49922 8.77333 8.49922 9.06666V10.6667C8.49922 10.96 8.73922 11.2 9.03255 11.2H10.6326C10.9259 11.2 11.1659 10.96 11.1659 10.6667V9.06666C11.1659 8.77333 10.9259 8.53333 10.6326 8.53333ZM10.6326 3.2V3.73333H6.36589V3.2C6.36589 2.90666 6.12589 2.66666 5.83255 2.66666C5.53922 2.66666 5.29922 2.90666 5.29922 3.2V3.73333H4.76589C4.17389 3.73333 3.70455 4.21333 3.70455 4.8L3.69922 12.2667C3.69922 12.8533 4.17389 13.3333 4.76589 13.3333H12.2326C12.8192 13.3333 13.2992 12.8533 13.2992 12.2667V4.8C13.2992 4.21333 12.8192 3.73333 12.2326 3.73333H11.6992V3.2C11.6992 2.90666 11.4592 2.66666 11.1659 2.66666C10.8726 2.66666 10.6326 2.90666 10.6326 3.2ZM11.6992 12.2667H5.29922C5.00589 12.2667 4.76589 12.0267 4.76589 11.7333V6.4H12.2326V11.7333C12.2326 12.0267 11.9926 12.2667 11.6992 12.2667Z" fill="#1C1B1F"/>
</svg>
