<svg width="11" height="9" viewBox="0 0 11 9" fill="none" xmlns="http://www.w3.org/2000/svg">
<path id="check" d="M3.72917 6.44293L9.22917 0.963767C9.38194 0.810989 9.55556 0.738073 9.75 0.745017C9.94444 0.751961 10.1181 0.831822 10.2708 0.9846C10.4236 1.13738 10.5 1.31099 10.5 1.50543C10.5 1.69988 10.4236 1.87349 10.2708 2.02627L4.27083 8.02627C4.11806 8.17904 3.94097 8.25543 3.73958 8.25543C3.53819 8.25543 3.36111 8.17904 3.20833 8.02627L0.729167 5.5471C0.576389 5.39432 0.5 5.22071 0.5 5.02627C0.5 4.83182 0.576389 4.65821 0.729167 4.50543C0.881944 4.35266 1.05556 4.27627 1.25 4.27627C1.44444 4.27627 1.61806 4.35266 1.77083 4.50543L3.72917 6.44293Z" fill="white"/>
</svg>
