<svg width="25" height="25" viewBox="0 0 25 25" fill="none" xmlns="http://www.w3.org/2000/svg">
<g id="chevron_right">
<mask id="mask0_6_4093" style="mask-type:alpha" maskUnits="userSpaceOnUse" x="0" y="0" width="25" height="25">
<rect id="Bounding box" x="0.5" y="0.5" width="24" height="24" fill="#D9D9D9"/>
</mask>
<g mask="url(#mask0_6_4093)">
<path id="chevron_right_2" d="M13.1 12.5L9.20005 8.59999C9.01672 8.41665 8.92505 8.18332 8.92505 7.89999C8.92505 7.61665 9.01672 7.38332 9.20005 7.19999C9.38338 7.01665 9.61672 6.92499 9.90005 6.92499C10.1834 6.92499 10.4167 7.01665 10.6 7.19999L15.2 11.8C15.3 11.9 15.3709 12.0083 15.4125 12.125C15.4542 12.2417 15.475 12.3667 15.475 12.5C15.475 12.6333 15.4542 12.7583 15.4125 12.875C15.3709 12.9917 15.3 13.1 15.2 13.2L10.6 17.8C10.4167 17.9833 10.1834 18.075 9.90005 18.075C9.61672 18.075 9.38338 17.9833 9.20005 17.8C9.01672 17.6167 8.92505 17.3833 8.92505 17.1C8.92505 16.8167 9.01672 16.5833 9.20005 16.4L13.1 12.5Z" fill="#48016D"/>
</g>
</g>
</svg>
