<svg width="536" height="410" viewBox="0 0 536 410" fill="none" xmlns="http://www.w3.org/2000/svg">
<g clip-path="url(#clip0_58_3315)">
<path d="M532.875 253.855H3.12505C1.77505 253.855 0.675049 252.755 0.675049 251.405C0.675049 250.055 1.77505 248.955 3.12505 248.955H532.875C534.225 248.955 535.325 250.055 535.325 251.405C535.325 252.755 534.225 253.855 532.875 253.855Z" fill="#000067"/>
<path d="M394.985 153.705C394.765 150.545 392.135 148.085 388.955 148.085H354.055C353.295 148.085 352.675 148.705 352.675 149.465C352.675 150.225 353.295 150.845 354.055 150.845H356.015C356.655 150.845 357.185 151.335 357.235 151.975L363.225 236.855C363.525 241.045 360.195 244.615 355.995 244.615H335.965C334.745 244.615 333.755 245.605 333.755 246.825C333.755 248.045 334.745 249.035 335.965 249.035H395.235C398.735 249.035 401.505 246.065 401.265 242.565L394.995 153.695L394.985 153.705Z" fill="#4F46C6"/>
<path opacity="0.33" d="M398.655 205.825H361.025L361.665 214.825H399.295L398.655 205.825Z" fill="#000067"/>
<path d="M443.995 207.775H277.105C269.865 207.775 264.505 201.035 266.135 193.975L292.975 77.735C294.155 72.625 298.705 69.005 303.945 69.005H470.835C478.075 69.005 483.435 75.745 481.805 82.805L454.965 199.045C453.785 204.155 449.235 207.775 443.995 207.775Z" fill="#4F46C6"/>
<path d="M437.525 207.775H270.635C263.395 207.775 258.035 201.035 259.665 193.975L286.505 77.735C287.685 72.625 292.235 69.005 297.475 69.005H464.365C471.605 69.005 476.965 75.745 475.335 82.805L448.495 199.045C447.315 204.155 442.765 207.775 437.525 207.775Z" fill="#000067"/>
<path d="M270.645 202.075C268.945 202.075 267.355 201.315 266.295 199.975C265.235 198.645 264.845 196.925 265.225 195.265L292.065 79.025C292.655 76.485 294.875 74.715 297.485 74.715H464.375C466.075 74.715 467.665 75.475 468.725 76.815C469.785 78.145 470.175 79.865 469.795 81.525L442.955 197.765C442.375 200.305 440.145 202.075 437.535 202.075H270.645Z" fill="#E8EDFE"/>
<path d="M270.645 202.075C268.945 202.075 267.355 201.315 266.295 199.975C265.235 198.645 264.845 196.925 265.225 195.265L292.065 79.025C292.655 76.485 294.875 74.715 297.485 74.715H464.375C466.075 74.715 467.665 75.475 468.725 76.815C469.785 78.145 470.175 79.865 469.795 81.525L442.955 197.765C442.375 200.305 440.145 202.075 437.535 202.075H270.645Z" fill="#E8EDFE"/>
<path d="M266.145 240.465H383.215C384.755 240.465 385.995 241.315 385.995 242.365V247.055C385.995 248.105 384.745 248.955 383.215 248.955H266.145C264.605 248.955 263.365 248.105 263.365 247.055V242.365C263.365 241.315 264.615 240.465 266.145 240.465Z" fill="#572A44"/>
<path d="M338.375 240.465H384.885C385.495 240.465 385.995 241.315 385.995 242.365V247.055C385.995 248.105 385.505 248.955 384.885 248.955H338.375C337.765 248.955 337.265 248.105 337.265 247.055V242.365C337.265 241.315 337.755 240.465 338.375 240.465Z" fill="#000067"/>
<path d="M117.735 128.515C117.735 128.515 86.5751 134.745 81.4051 163.915C75.8251 195.435 97.4051 251.405 97.4051 251.405H137.525L117.735 128.515Z" fill="#887AFE"/>
<path d="M298.865 358.865H172.155C141.295 347.715 140.525 299.475 140.525 299.475H226.245C276.785 299.475 311.165 305.495 312.115 322.125C312.885 335.595 302.755 352.805 298.865 358.865Z" fill="#000067"/>
<path d="M276.905 351.075L272.025 358.865H172.155C141.295 347.715 140.525 299.475 140.525 299.475H177.035C177.035 299.475 177.405 345.575 215.405 348.575C253.405 351.575 276.905 351.075 276.905 351.075Z" fill="#00004C"/>
<path d="M144.075 46.395C144.075 46.395 141.145 35.465 146.845 28.415C146.845 28.415 143.515 35.305 146.845 42.995L144.075 46.405V46.395Z" fill="#000067"/>
<path d="M146.025 43.115C146.025 43.115 143.695 39.485 137.525 41.765C137.525 41.765 142.435 41.175 143.785 44.145L146.025 43.115Z" fill="#000067"/>
<path d="M141.775 89.885C141.775 89.885 138.195 112.465 128.925 126.725C128.925 126.725 161.005 129.575 166.715 135.515L167.665 102.475L141.775 89.875V89.885Z" fill="#FFBBA5"/>
<path d="M192.855 49.015C194.515 53.765 199.985 70.165 198.555 73.255C197.125 76.345 199.035 82.285 199.985 87.755C200.935 93.225 196.895 91.795 196.425 94.405C195.955 97.015 197.615 112.705 187.635 116.985C177.655 121.265 164.105 116.035 154.595 106.765C145.085 97.495 132.725 71.355 151.745 52.815C170.755 34.275 192.865 49.015 192.865 49.015H192.855Z" fill="#FFBBA5"/>
<path d="M166.535 78.365C166.535 78.365 169.065 88.715 176.235 88.645L168.685 73.465L166.535 78.355V78.365Z" fill="#FF9E7C"/>
<path d="M168.605 78.605C168.605 78.605 165.645 98.505 148.295 98.505C140.465 98.505 136.705 94.645 133.145 82.765C130.195 72.925 123.205 64.315 124.115 56.625C125.775 42.605 142.115 41.175 144.135 42.725C144.135 42.725 144.015 29.415 160.895 25.495C177.765 21.575 185.015 37.975 197.255 32.865C209.495 27.755 209.695 50.345 194.265 53.195C178.835 56.035 191.195 72.315 178.955 75.285C166.715 78.255 168.605 78.615 168.605 78.615V78.605Z" fill="#000067"/>
<path d="M180.945 77.185C181.545 83.195 179.435 88.325 176.235 88.645C173.035 88.965 169.095 83.775 168.495 77.765C167.895 71.755 170.865 67.205 174.065 66.885C177.265 66.565 180.345 71.175 180.945 77.185Z" fill="#FFBBA5"/>
<path d="M126.405 125.075L131.835 116.655C133.195 114.545 135.575 113.325 138.075 113.425C141.245 113.545 146.165 113.985 152.585 115.315C162.505 117.355 168.035 119.575 170.715 120.895C172.025 121.545 172.925 122.795 173.155 124.245L175.495 139.325C175.495 139.325 168.195 133.015 156.585 129.675C144.985 126.335 126.395 125.085 126.395 125.085L126.405 125.075Z" fill="#A695FF"/>
<path d="M127.635 123.265C127.635 123.265 140.995 121.985 153.965 125.145C166.925 128.305 192.245 137.665 198.585 142.735C204.925 147.805 198.375 170.935 201.185 196.135C204.045 221.815 220.255 300.955 209.305 299.715C209.305 299.715 193.265 303.245 156.815 303.245C120.365 303.245 102.945 306.735 104.215 285.815C105.485 264.905 81.9651 179.755 86.0851 157.255C90.2051 134.755 110.845 129.135 127.645 123.275L127.635 123.265Z" fill="#B8B2FF"/>
<path d="M209.295 299.705C220.245 300.955 204.035 221.805 201.175 196.125C200.125 186.725 200.385 177.605 200.785 169.615H178.715C178.715 169.615 185.445 224.585 193.265 259.245C197.235 276.865 197.165 291.445 196.145 301.525C205.105 300.625 209.305 299.705 209.305 299.705H209.295Z" fill="#ABA5FF"/>
<path d="M308.475 230.565L325.015 234.885L345.625 227.255L365.465 231.075L377.165 246.085C377.165 246.085 376.145 249.775 372.075 247.355C372.075 247.355 370.165 250.265 366.475 248.175C362.785 246.085 363.545 241.245 359.735 240.735C355.915 240.225 356.555 248.925 347.395 248.925H312.165L308.475 230.555V230.565Z" fill="#FFBBA5"/>
<path d="M319.725 248.935H347.405C356.565 248.935 355.925 240.235 359.745 240.745C363.565 241.255 362.795 246.085 366.485 248.185C370.175 250.275 372.085 247.365 372.085 247.365C372.085 247.365 368.585 243.085 365.245 239.915C361.915 236.745 359.075 235.745 352.915 240.915C346.745 246.085 336.415 246.415 333.085 246.725C329.755 247.035 321.155 246.725 321.155 246.725L319.735 248.945L319.725 248.935Z" fill="#FFA17C"/>
<path d="M167.665 109.795L167.385 115.565C167.385 115.565 178.125 121.025 186.705 117.345C186.705 117.345 173.965 119.655 167.665 109.795Z" fill="#FF9E7C"/>
<path d="M196.655 141.405C206.325 147.015 221.145 166.645 231.915 179.965C243.955 194.855 261.385 217.045 262.335 217.995C263.285 218.945 317.795 231.305 317.795 231.305C317.795 231.305 322.235 238.275 320.965 249.055H243.745C243.745 249.055 205.395 221.395 193.265 208.925C176.625 191.815 170.035 152.825 196.655 141.415V141.405Z" fill="#A695FF"/>
<path d="M178.065 76.185C179.305 72.235 179.985 67.945 179.985 63.475C179.985 45.115 168.555 29.955 153.765 27.715" stroke="#E7EDFD" stroke-width="1.71" stroke-linecap="round" stroke-linejoin="round"/>
<path d="M176.725 88.815C176.725 88.815 179.445 104.595 198.545 106.665" stroke="#000067" stroke-width="1.48" stroke-miterlimit="10"/>
<path d="M200.705 106.865C200.595 108.585 198.635 109.865 196.315 109.715C193.995 109.575 192.205 108.065 192.315 106.345C192.425 104.625 194.385 103.345 196.705 103.495C199.025 103.635 200.815 105.145 200.705 106.865Z" fill="#000067"/>
<path d="M179.535 93.625C186.008 93.625 191.255 86.475 191.255 77.655C191.255 68.835 186.008 61.685 179.535 61.685C173.062 61.685 167.815 68.835 167.815 77.655C167.815 86.475 173.062 93.625 179.535 93.625Z" fill="#7D6AFE"/>
<path d="M182.175 89.085C186.809 89.085 190.565 83.9676 190.565 77.655C190.565 71.3424 186.809 66.225 182.175 66.225C177.541 66.225 173.785 71.3424 173.785 77.655C173.785 83.9676 177.541 89.085 182.175 89.085Z" fill="#E7EDFD"/>
<path d="M182.655 88.425C187.018 88.425 190.555 83.6031 190.555 77.655C190.555 71.7069 187.018 66.885 182.655 66.885C178.292 66.885 174.755 71.7069 174.755 77.655C174.755 83.6031 178.292 88.425 182.655 88.425Z" fill="#B8B2FF"/>
<path opacity="0.56" d="M249.945 240.465C241.155 237.295 194.235 216.585 181.175 187.505C183.685 195.795 187.955 203.465 193.255 208.915C205.385 221.395 243.735 249.045 243.735 249.045H320.955C321.045 248.245 321.105 247.475 321.135 246.715C302.055 246.195 256.285 242.745 249.945 240.455V240.465Z" fill="#887AFE"/>
<path d="M269.515 202.075C266.165 201.095 264.575 198.105 265.235 195.265L292.075 79.025C292.665 76.485 294.885 74.715 297.495 74.715H465.495C468.855 75.685 470.455 78.685 469.795 81.525L442.955 197.765C442.375 200.305 440.145 202.075 437.535 202.075H269.515Z" fill="#E8EDFE"/>
<path d="M313.415 126.105H304.915C301.675 126.105 299.645 123.475 300.395 120.225L302.355 111.725C303.105 108.485 306.345 105.845 309.585 105.845H318.085C321.325 105.845 323.355 108.475 322.605 111.725L320.645 120.225C319.895 123.465 316.655 126.105 313.415 126.105Z" fill="#6E65F1"/>
<path d="M369.615 113.605H333.925C332.545 113.605 331.685 112.485 332.005 111.105C332.325 109.725 333.705 108.605 335.085 108.605H370.775C372.155 108.605 373.015 109.725 372.695 111.105C372.375 112.485 370.995 113.605 369.615 113.605Z" fill="#D0D1F7"/>
<path d="M432.925 123.355H329.675C329.395 123.355 329.225 123.135 329.295 122.855C329.355 122.575 329.635 122.355 329.915 122.355H433.165C433.445 122.355 433.615 122.575 433.545 122.855C433.485 123.135 433.205 123.355 432.925 123.355Z" fill="#D0D1F7"/>
<path d="M306.725 155.105H298.225C294.985 155.105 292.955 152.475 293.705 149.225L295.665 140.725C296.415 137.485 299.655 134.845 302.895 134.845H311.395C314.635 134.845 316.665 137.475 315.915 140.725L313.955 149.225C313.205 152.465 309.965 155.105 306.725 155.105Z" fill="#FF456F"/>
<path d="M397.715 142.605H327.225C325.845 142.605 324.985 141.485 325.305 140.105C325.625 138.725 327.005 137.605 328.385 137.605H398.875C400.255 137.605 401.115 138.725 400.795 140.105C400.475 141.485 399.095 142.605 397.715 142.605Z" fill="#D0D1F7"/>
<path d="M426.235 152.355H322.985C322.705 152.355 322.535 152.135 322.605 151.855C322.665 151.575 322.945 151.355 323.225 151.355H426.475C426.755 151.355 426.925 151.575 426.855 151.855C426.795 152.135 426.515 152.355 426.235 152.355Z" fill="#D0D1F7"/>
<path d="M300.025 184.105H291.525C288.285 184.105 286.255 181.475 287.005 178.225L288.965 169.725C289.715 166.485 292.955 163.845 296.195 163.845H304.695C307.935 163.845 309.965 166.475 309.215 169.725L307.255 178.225C306.505 181.465 303.265 184.105 300.025 184.105Z" fill="#6E65F1"/>
<path d="M351.295 171.605H320.535C319.155 171.605 318.295 170.485 318.615 169.105C318.935 167.725 320.315 166.605 321.695 166.605H352.455C353.835 166.605 354.695 167.725 354.375 169.105C354.055 170.485 352.675 171.605 351.295 171.605Z" fill="#D0D1F7"/>
<path d="M418.595 171.605H402.855C401.475 171.605 400.615 170.485 400.935 169.105C401.255 167.725 402.635 166.605 404.015 166.605H419.755C421.135 166.605 421.995 167.725 421.675 169.105C421.355 170.485 419.975 171.605 418.595 171.605Z" fill="#D0D1F7"/>
<path d="M419.535 181.355H316.285C316.005 181.355 315.835 181.135 315.905 180.855C315.965 180.575 316.245 180.355 316.525 180.355H419.775C420.055 180.355 420.225 180.575 420.155 180.855C420.095 181.135 419.815 181.355 419.535 181.355Z" fill="#D0D1F7"/>
<path d="M380.945 98.355H308.275C306.715 98.355 305.735 97.085 306.095 95.525C306.455 93.965 308.015 92.695 309.585 92.695H382.255C383.815 92.695 384.795 93.965 384.435 95.525C384.075 97.085 382.515 98.355 380.945 98.355Z" fill="#D0D1F7"/>
<path d="M314.335 112.715C314.065 113.865 312.925 114.795 311.775 114.795C310.625 114.795 309.915 113.865 310.175 112.715C310.435 111.565 311.585 110.635 312.735 110.635C313.885 110.635 314.595 111.565 314.335 112.715Z" fill="#E8EDFE"/>
<path d="M311.465 116.145C309.605 116.145 307.745 117.125 306.485 118.605C305.485 119.785 305.995 121.315 307.385 121.315H313.145C314.535 121.315 315.755 119.785 315.305 118.605C314.735 117.125 313.325 116.145 311.465 116.145Z" fill="#E8EDFE"/>
<path d="M307.645 141.715C307.385 142.865 306.235 143.795 305.085 143.795C303.935 143.795 303.225 142.865 303.485 141.715C303.745 140.565 304.895 139.635 306.045 139.635C307.195 139.635 307.905 140.565 307.645 141.715Z" fill="#E8EDFE"/>
<path d="M304.775 145.145C302.915 145.145 301.055 146.125 299.795 147.605C298.795 148.785 299.305 150.315 300.695 150.315H306.455C307.845 150.315 309.065 148.785 308.615 147.605C308.045 146.125 306.635 145.145 304.775 145.145Z" fill="#E8EDFE"/>
<path d="M300.945 170.715C300.685 171.865 299.535 172.795 298.385 172.795C297.235 172.795 296.525 171.865 296.785 170.715C297.045 169.565 298.195 168.635 299.345 168.635C300.495 168.635 301.205 169.565 300.945 170.715Z" fill="#E8EDFE"/>
<path d="M298.075 174.145C296.215 174.145 294.355 175.125 293.095 176.605C292.095 177.785 292.605 179.315 293.995 179.315H299.755C301.145 179.315 302.365 177.785 301.915 176.605C301.345 175.125 299.935 174.145 298.075 174.145Z" fill="#E8EDFE"/>
<mask id="mask0_58_3315" style="mask-type:luminance" maskUnits="userSpaceOnUse" x="0" y="198" width="189" height="161">
<path d="M188.535 198.565H0.675049V358.865H188.535V198.565Z" fill="white"/>
</mask>
<g mask="url(#mask0_58_3315)">
<path d="M89.2951 408.035C89.2951 408.035 52.0051 396.975 49.1151 355.505C46.2251 314.035 55.7551 310.085 35.6351 265.555C15.5151 221.025 29.1351 205.855 62.4651 202.945C95.7951 200.035 150.065 202.515 163.035 240.525C176.005 278.535 160.965 370.535 214.445 378.535C267.915 386.535 294.745 377.775 296.395 383.475C298.045 389.175 305.235 404.535 265.685 408.035C226.135 411.535 89.2951 408.035 89.2951 408.035Z" fill="#4231BC"/>
<path d="M79.7951 408.035C79.7951 408.035 42.5051 396.975 39.6151 355.505C36.7251 314.035 46.2551 310.085 26.1351 265.555C6.01514 221.025 19.6351 205.855 52.9651 202.945C86.2951 200.035 140.565 202.515 153.535 240.525C166.505 278.535 151.465 370.535 204.945 378.535C258.415 386.535 285.245 377.775 286.895 383.475C288.545 389.175 295.735 404.535 256.185 408.035C216.635 411.535 79.7951 408.035 79.7951 408.035Z" fill="#5B3FDA"/>
<path d="M172.115 409.515C171.135 408.895 170.145 408.305 169.135 407.735C158.435 401.765 146.525 398.375 135.045 394.095C123.565 389.815 112.105 384.385 103.845 375.335C92.1952 362.565 88.4852 344.465 78.8152 330.135C70.9852 318.535 59.5952 309.915 49.2252 300.505C43.9452 295.705 38.8552 290.595 34.6652 284.795C34.1252 284.045 33.6152 283.275 33.1052 282.505C43.7552 311.995 37.1352 320.005 39.6052 355.495C42.4952 396.965 79.7852 408.025 79.7852 408.025C79.7852 408.025 125.755 409.205 172.105 409.505L172.115 409.515Z" fill="#4231BC"/>
</g>
<path d="M280.015 52.165H315.955C319.445 52.165 322.915 49.335 323.725 45.855L326.835 32.375C327.635 28.885 325.465 26.065 321.985 26.065H286.045C282.555 26.065 279.085 28.895 278.275 32.375L275.165 45.855C274.365 49.345 276.535 52.165 280.015 52.165Z" fill="#FF4173"/>
<path d="M303.445 52.165L311.855 59.085L312.125 52.165H303.445Z" fill="#FF4173"/>
<path d="M306.265 44.055C303.945 43.485 304.705 42.165 305.345 40.265C305.985 38.365 301.125 38.395 301.125 38.395C301.125 38.395 296.275 38.425 296.055 40.315C295.825 42.215 296.005 43.525 293.415 44.125C290.975 44.685 289.495 44.655 289.175 44.145C288.855 43.635 289.195 42.355 289.415 41.435C289.635 40.515 291.635 34.825 301.945 34.765C312.255 34.705 311.695 40.395 311.495 41.315C311.295 42.235 311.065 43.515 310.505 44.025C309.955 44.545 308.455 44.585 306.265 44.045V44.055Z" fill="#E8EDFE"/>
<path d="M239.325 104.835H301.325C305.195 104.835 309.045 101.705 309.945 97.835L313.335 83.165C314.225 79.295 311.815 76.165 307.955 76.165H245.955C242.085 76.165 238.235 79.295 237.335 83.165L233.945 97.835C233.055 101.705 235.465 104.835 239.325 104.835Z" fill="#5B40DB"/>
<path d="M283.545 104.205L295.165 113.385L294.685 103.945L283.545 104.205Z" fill="#5B40DB"/>
<path d="M301.095 95.005H276.095" stroke="#E8EDFE" stroke-width="2" stroke-miterlimit="10" stroke-linecap="round"/>
<path d="M270.015 95.005H263.095" stroke="#E8EDFE" stroke-width="2" stroke-miterlimit="10" stroke-linecap="round"/>
<path d="M303.175 86.005H259.675" stroke="#E8EDFE" stroke-width="2" stroke-miterlimit="10" stroke-linecap="round"/>
<path d="M253.095 86.005H246.175" stroke="#E8EDFE" stroke-width="2" stroke-miterlimit="10" stroke-linecap="round"/>
<path d="M437.645 31.055H352.705C348.085 31.055 345.195 27.305 346.265 22.685L349.475 8.775C350.545 4.155 355.155 0.404999 359.785 0.404999H444.725C449.345 0.404999 452.235 4.155 451.165 8.775L447.955 22.685C446.885 27.305 442.275 31.055 437.645 31.055Z" fill="#736AF8"/>
<path d="M377.825 30.385L357.185 40.195L363.075 30.105L377.825 30.385Z" fill="#736AF8"/>
<path d="M356.915 20.545H392.775" stroke="#E8EDFE" stroke-width="2" stroke-miterlimit="10" stroke-linecap="round"/>
<path d="M401.495 20.545H411.425" stroke="#E8EDFE" stroke-width="2" stroke-miterlimit="10" stroke-linecap="round"/>
<path d="M359.135 10.925H421.535" stroke="#E8EDFE" stroke-width="2" stroke-miterlimit="10" stroke-linecap="round"/>
<path d="M430.975 10.925H440.895" stroke="#E8EDFE" stroke-width="2" stroke-miterlimit="10" stroke-linecap="round"/>
<path d="M480.415 86.415H413.415C405.685 86.415 400.865 80.145 402.645 72.415L405.105 61.745C406.895 54.015 414.605 47.745 422.335 47.745H489.335C497.065 47.745 501.885 54.015 500.105 61.745L497.645 72.415C495.855 80.145 488.145 86.415 480.415 86.415Z" fill="#00B4FF"/>
<path d="M486.275 62.595L484.555 64.975C484.445 65.135 484.265 65.235 484.095 65.265L481.385 65.645C480.935 65.705 480.645 66.235 480.885 66.545L482.355 68.395C482.455 68.515 482.465 68.695 482.395 68.865L481.345 71.475C481.175 71.905 481.545 72.235 481.985 72.035L484.615 70.805C484.785 70.725 484.975 70.725 485.105 70.805L487.165 72.035C487.505 72.235 488.035 71.905 488.055 71.475L488.215 68.865C488.225 68.695 488.325 68.515 488.475 68.395L490.805 66.545C491.185 66.235 491.135 65.705 490.725 65.645L488.185 65.265C488.015 65.235 487.895 65.135 487.855 64.975L487.235 62.595C487.135 62.205 486.575 62.205 486.285 62.595H486.275Z" fill="#E8EDFE"/>
<path d="M469.115 62.595L467.395 64.975C467.285 65.135 467.105 65.235 466.935 65.265L464.225 65.645C463.775 65.705 463.485 66.235 463.725 66.545L465.195 68.395C465.295 68.515 465.305 68.695 465.235 68.865L464.185 71.475C464.015 71.905 464.385 72.235 464.825 72.035L467.455 70.805C467.625 70.725 467.815 70.725 467.945 70.805L470.005 72.035C470.345 72.235 470.875 71.905 470.895 71.475L471.055 68.865C471.065 68.695 471.165 68.515 471.315 68.395L473.645 66.545C474.025 66.235 473.975 65.705 473.565 65.645L471.025 65.265C470.855 65.235 470.735 65.135 470.695 64.975L470.075 62.595C469.975 62.205 469.415 62.205 469.125 62.595H469.115Z" fill="#E8EDFE"/>
<path d="M451.945 62.595L450.225 64.975C450.115 65.135 449.935 65.235 449.765 65.265L447.055 65.645C446.605 65.705 446.315 66.235 446.555 66.545L448.025 68.395C448.125 68.515 448.135 68.695 448.065 68.865L447.015 71.475C446.845 71.905 447.215 72.235 447.655 72.035L450.285 70.805C450.455 70.725 450.645 70.725 450.775 70.805L452.835 72.035C453.175 72.235 453.705 71.905 453.725 71.475L453.885 68.865C453.895 68.695 453.995 68.515 454.145 68.395L456.475 66.545C456.855 66.235 456.805 65.705 456.395 65.645L453.855 65.265C453.685 65.235 453.565 65.135 453.525 64.975L452.905 62.595C452.805 62.205 452.245 62.205 451.955 62.595H451.945Z" fill="#E8EDFE"/>
<path d="M434.775 62.595L433.055 64.975C432.945 65.135 432.765 65.235 432.595 65.265L429.885 65.645C429.435 65.705 429.145 66.235 429.385 66.545L430.855 68.395C430.955 68.515 430.965 68.695 430.895 68.865L429.845 71.475C429.675 71.905 430.045 72.235 430.485 72.035L433.115 70.805C433.285 70.725 433.475 70.725 433.605 70.805L435.665 72.035C436.005 72.235 436.535 71.905 436.555 71.475L436.715 68.865C436.725 68.695 436.825 68.515 436.975 68.395L439.305 66.545C439.685 66.235 439.635 65.705 439.225 65.645L436.685 65.265C436.515 65.235 436.395 65.135 436.355 64.975L435.735 62.595C435.635 62.205 435.075 62.205 434.785 62.595H434.775Z" fill="#E8EDFE"/>
<path d="M417.615 62.595L415.895 64.975C415.785 65.135 415.605 65.235 415.435 65.265L412.725 65.645C412.275 65.705 411.985 66.235 412.225 66.545L413.695 68.395C413.795 68.515 413.805 68.695 413.735 68.865L412.685 71.475C412.515 71.905 412.885 72.235 413.325 72.035L415.955 70.805C416.125 70.725 416.315 70.725 416.445 70.805L418.505 72.035C418.845 72.235 419.375 71.905 419.395 71.475L419.555 68.865C419.565 68.695 419.665 68.515 419.815 68.395L422.145 66.545C422.525 66.235 422.475 65.705 422.065 65.645L419.525 65.265C419.355 65.235 419.235 65.135 419.195 64.975L418.575 62.595C418.475 62.205 417.915 62.205 417.625 62.595H417.615Z" fill="#E8EDFE"/>
<path d="M414.095 84.565L405.705 94.505L434.495 84.675L414.095 84.565Z" fill="#00B4FF"/>
</g>
<defs>
<clipPath id="clip0_58_3315">
<rect width="534.65" height="409.19" fill="white" transform="translate(0.675049 0.404999)"/>
</clipPath>
</defs>
</svg>
