<svg width="10" height="11" viewBox="0 0 10 11" fill="none" xmlns="http://www.w3.org/2000/svg">
<path id="close" d="M4.79212 6.56748L1.37545 9.98415C1.22268 10.1369 1.04906 10.2098 0.85462 10.2029C0.660175 10.196 0.486564 10.1161 0.333786 9.96331C0.181008 9.81054 0.10462 9.63345 0.10462 9.43206C0.10462 9.23067 0.181008 9.05359 0.333786 8.90081L3.72962 5.50498L0.312953 2.08831C0.160175 1.93554 0.0872585 1.75845 0.0942029 1.55706C0.101147 1.35567 0.181008 1.17859 0.333786 1.02581C0.486564 0.873035 0.663647 0.796646 0.865036 0.796646C1.06643 0.796646 1.24351 0.873035 1.39629 1.02581L4.79212 4.44248L8.20879 1.02581C8.36156 0.873035 8.53865 0.796646 8.74004 0.796646C8.94143 0.796646 9.11851 0.873035 9.27129 1.02581C9.42406 1.17859 9.50045 1.35567 9.50045 1.55706C9.50045 1.75845 9.42406 1.93554 9.27129 2.08831L5.85462 5.50498L9.27129 8.92165C9.42406 9.07442 9.50045 9.24804 9.50045 9.44248C9.50045 9.63692 9.42406 9.81054 9.27129 9.96331C9.11851 10.1161 8.94143 10.1925 8.74004 10.1925C8.53865 10.1925 8.36156 10.1161 8.20879 9.96331L4.79212 6.56748Z" fill="#E14942"/>
</svg>
