<svg width="17" height="16" viewBox="0 0 17 16" fill="none" xmlns="http://www.w3.org/2000/svg">
<mask id="mask0_407_3205" style="mask-type:alpha" maskUnits="userSpaceOnUse" x="0" y="0" width="17" height="16">
<rect x="0.5" width="16" height="16" fill="#D9D9D9"/>
</mask>
<g mask="url(#mask0_407_3205)">
<path d="M11.1662 5.6L5.23288 11.5333C5.11066 11.6556 4.9551 11.7167 4.76621 11.7167C4.57732 11.7167 4.42177 11.6556 4.29954 11.5333C4.17732 11.4111 4.11621 11.2556 4.11621 11.0667C4.11621 10.8778 4.17732 10.7222 4.29954 10.6L10.2329 4.66667H5.16621C4.97732 4.66667 4.81899 4.60278 4.69121 4.475C4.56343 4.34722 4.49954 4.18889 4.49954 4C4.49954 3.81111 4.56343 3.65278 4.69121 3.525C4.81899 3.39722 4.97732 3.33334 5.16621 3.33334H11.8329C12.0218 3.33334 12.1801 3.39722 12.3079 3.525C12.4357 3.65278 12.4995 3.81111 12.4995 4V10.6667C12.4995 10.8556 12.4357 11.0139 12.3079 11.1417C12.1801 11.2694 12.0218 11.3333 11.8329 11.3333C11.644 11.3333 11.4857 11.2694 11.3579 11.1417C11.2301 11.0139 11.1662 10.8556 11.1662 10.6667V5.6Z" fill="black"/>
</g>
</svg>
