<svg width="96" height="96" viewBox="0 0 96 96" fill="none" xmlns="http://www.w3.org/2000/svg">
<rect width="96" height="96" rx="48" fill="#F2F2F2"/>
<mask id="mask0_108_4871" style="mask-type:alpha" maskUnits="userSpaceOnUse" x="24" y="24" width="48" height="48">
<rect x="24" y="24" width="48" height="48" fill="#D9D9D9"/>
</mask>
<g mask="url(#mask0_108_4871)">
<path d="M39.1551 52.2761C38.5576 52.2761 38.0571 52.0728 37.6539 51.6661C37.2506 51.2594 37.049 50.7585 37.049 50.1634C37.049 49.5682 37.2511 49.067 37.6553 48.6598C38.0596 48.2525 38.5605 48.0489 39.1581 48.0489C39.7556 48.0489 40.2561 48.2531 40.6593 48.6614C41.0626 49.0698 41.2642 49.5724 41.2642 50.1693C41.2642 50.7604 41.0621 51.2594 40.6578 51.6661C40.2536 52.0728 39.7527 52.2761 39.1551 52.2761ZM48.1486 52.2761C47.551 52.2761 47.0506 52.0728 46.6474 51.6661C46.2441 51.2594 46.0425 50.7585 46.0425 50.1634C46.0425 49.5682 46.2446 49.067 46.6488 48.6598C47.0531 48.2525 47.554 48.0489 48.1515 48.0489C48.7491 48.0489 49.2495 48.2531 49.6528 48.6614C50.056 49.0698 50.2577 49.5724 50.2577 50.1693C50.2577 50.7604 50.0556 51.2594 49.6513 51.6661C49.2471 52.0728 48.7462 52.2761 48.1486 52.2761ZM56.7921 52.2761C56.1945 52.2761 55.6941 52.0728 55.2908 51.6661C54.8876 51.2594 54.6859 50.7585 54.6859 50.1634C54.6859 49.5682 54.8881 49.067 55.2923 48.6598C55.6966 48.2525 56.1975 48.0489 56.795 48.0489C57.3926 48.0489 57.893 48.2531 58.2963 48.6614C58.6995 49.0698 58.9012 49.5724 58.9012 50.1693C58.9012 50.7604 58.6991 51.2594 58.2948 51.6661C57.8906 52.0728 57.3896 52.2761 56.7921 52.2761ZM33.1077 68.2989C32.1877 68.2989 31.39 67.9612 30.7144 67.2857C30.0389 66.6101 29.7012 65.8124 29.7012 64.8924V34.1076C29.7012 33.1844 30.0389 32.3838 30.7144 31.706C31.39 31.0281 32.1877 30.6891 33.1077 30.6891H36.2501V29.3968C36.2501 28.9183 36.4161 28.5141 36.7483 28.1841C37.0804 27.8541 37.4843 27.6891 37.96 27.6891C38.4499 27.6891 38.8629 27.8541 39.1991 28.1841C39.5352 28.5141 39.7033 28.9183 39.7033 29.3968V30.6891H56.2968V29.3968C56.2968 28.9183 56.4629 28.5141 56.795 28.1841C57.1271 27.8541 57.531 27.6891 58.0067 27.6891C58.4966 27.6891 58.9096 27.8541 59.2458 28.1841C59.582 28.5141 59.7501 28.9183 59.7501 29.3968V30.6891H62.8925C63.8157 30.6891 64.6163 31.0281 65.2941 31.706C65.972 32.3838 66.311 33.1844 66.311 34.1076V64.8924C66.311 65.8124 65.972 66.6101 65.2941 67.2857C64.6163 67.9612 63.8157 68.2989 62.8925 68.2989H33.1077ZM33.1077 64.8924H62.8925V43.5H33.1077V64.8924ZM33.1077 40.5H62.8925V34.1076H33.1077V40.5Z" fill="#1C1B1F"/>
</g>
</svg>
