<svg width="22" height="18" viewBox="0 0 22 18" fill="none" xmlns="http://www.w3.org/2000/svg">
<g id="move_item">
<path id="move_item_2" d="M17.65 10H6.5C6.21667 10 5.97917 9.90417 5.7875 9.7125C5.59583 9.52083 5.5 9.28333 5.5 9C5.5 8.71667 5.59583 8.47917 5.7875 8.2875C5.97917 8.09583 6.21667 8 6.5 8H17.65L16.8 7.15C16.6 6.95 16.5042 6.71667 16.5125 6.45C16.5208 6.18333 16.6167 5.95 16.8 5.75C17 5.55 17.2375 5.44583 17.5125 5.4375C17.7875 5.42917 18.025 5.525 18.225 5.725L20.8 8.3C21 8.5 21.1 8.73333 21.1 9C21.1 9.26667 21 9.5 20.8 9.7L18.225 12.275C18.025 12.475 17.7875 12.5708 17.5125 12.5625C17.2375 12.5542 17 12.45 16.8 12.25C16.6167 12.05 16.5208 11.8167 16.5125 11.55C16.5042 11.2833 16.6 11.05 16.8 10.85L17.65 10ZM12.5 5V2H2.5V16H12.5V13C12.5 12.7167 12.5958 12.4792 12.7875 12.2875C12.9792 12.0958 13.2167 12 13.5 12C13.7833 12 14.0208 12.0958 14.2125 12.2875C14.4042 12.4792 14.5 12.7167 14.5 13V16C14.5 16.55 14.3042 17.0208 13.9125 17.4125C13.5208 17.8042 13.05 18 12.5 18H2.5C1.95 18 1.47917 17.8042 1.0875 17.4125C0.695833 17.0208 0.5 16.55 0.5 16V2C0.5 1.45 0.695833 0.979167 1.0875 0.5875C1.47917 0.195833 1.95 0 2.5 0H12.5C13.05 0 13.5208 0.195833 13.9125 0.5875C14.3042 0.979167 14.5 1.45 14.5 2V5C14.5 5.28333 14.4042 5.52083 14.2125 5.7125C14.0208 5.90417 13.7833 6 13.5 6C13.2167 6 12.9792 5.90417 12.7875 5.7125C12.5958 5.52083 12.5 5.28333 12.5 5Z" fill="#E14942"/>
</g>
</svg>
