<svg width="19" height="19" viewBox="0 0 19 19" fill="none" xmlns="http://www.w3.org/2000/svg">
<g id="Icon">
<mask id="mask0_332_1286" style="mask-type:alpha" maskUnits="userSpaceOnUse" x="0" y="0" width="19" height="19">
<rect id="Bounding box" x="0.5" y="0.5" width="18" height="18" fill="#D9D9D9"/>
</mask>
<g mask="url(#mask0_332_1286)">
<path id="mail" d="M3.5 15.5C3.0875 15.5 2.73438 15.3531 2.44063 15.0594C2.14688 14.7656 2 14.4125 2 14V5C2 4.5875 2.14688 4.23438 2.44063 3.94063C2.73438 3.64688 3.0875 3.5 3.5 3.5H15.5C15.9125 3.5 16.2656 3.64688 16.5594 3.94063C16.8531 4.23438 17 4.5875 17 5V14C17 14.4125 16.8531 14.7656 16.5594 15.0594C16.2656 15.3531 15.9125 15.5 15.5 15.5H3.5ZM15.5 6.5L9.89375 10.0063C9.83125 10.0438 9.76562 10.0719 9.69687 10.0906C9.62812 10.1094 9.5625 10.1187 9.5 10.1187C9.4375 10.1187 9.37188 10.1094 9.30313 10.0906C9.23438 10.0719 9.16875 10.0438 9.10625 10.0063L3.5 6.5V14H15.5V6.5ZM9.5 8.75L15.5 5H3.5L9.5 8.75ZM3.5 6.6875V5.58125V5.6V5.59063V6.6875Z" fill="#1C1B1F"/>
</g>
</g>
</svg>
