<svg width="19" height="19" viewBox="0 0 19 19" fill="none" xmlns="http://www.w3.org/2000/svg">
<g id="Icon">
<mask id="mask0_332_3949" style="mask-type:alpha" maskUnits="userSpaceOnUse" x="0" y="0" width="19" height="19">
<rect id="Bounding box" x="0.5" y="0.5" width="18" height="18" fill="#D9D9D9"/>
</mask>
<g mask="url(#mask0_332_3949)">
<path id="lock" d="M5 17C4.5875 17 4.23438 16.8531 3.94063 16.5594C3.64688 16.2656 3.5 15.9125 3.5 15.5V8C3.5 7.5875 3.64688 7.23438 3.94063 6.94063C4.23438 6.64687 4.5875 6.5 5 6.5H5.75V5C5.75 3.9625 6.11563 3.07812 6.84688 2.34687C7.57812 1.61562 8.4625 1.25 9.5 1.25C10.5375 1.25 11.4219 1.61562 12.1531 2.34687C12.8844 3.07812 13.25 3.9625 13.25 5V6.5H14C14.4125 6.5 14.7656 6.64687 15.0594 6.94063C15.3531 7.23438 15.5 7.5875 15.5 8V15.5C15.5 15.9125 15.3531 16.2656 15.0594 16.5594C14.7656 16.8531 14.4125 17 14 17H5ZM5 15.5H14V8H5V15.5ZM9.5 13.25C9.9125 13.25 10.2656 13.1031 10.5594 12.8094C10.8531 12.5156 11 12.1625 11 11.75C11 11.3375 10.8531 10.9844 10.5594 10.6906C10.2656 10.3969 9.9125 10.25 9.5 10.25C9.0875 10.25 8.73438 10.3969 8.44063 10.6906C8.14687 10.9844 8 11.3375 8 11.75C8 12.1625 8.14687 12.5156 8.44063 12.8094C8.73438 13.1031 9.0875 13.25 9.5 13.25ZM7.25 6.5H11.75V5C11.75 4.375 11.5312 3.84375 11.0938 3.40625C10.6562 2.96875 10.125 2.75 9.5 2.75C8.875 2.75 8.34375 2.96875 7.90625 3.40625C7.46875 3.84375 7.25 4.375 7.25 5V6.5Z" fill="#1C1B1F"/>
</g>
</g>
</svg>
