<svg width="18" height="19" viewBox="0 0 18 19" fill="none" xmlns="http://www.w3.org/2000/svg">
<mask id="mask0_429_718" style="mask-type:alpha" maskUnits="userSpaceOnUse" x="0" y="0" width="18" height="19">
<rect y="0.5" width="18" height="18" fill="#D9D9D9"/>
</mask>
<g mask="url(#mask0_429_718)">
<path d="M8.47437 11.225L6.52437 9.275C6.28687 9.0375 6.23375 8.76562 6.365 8.45938C6.49625 8.15312 6.73062 8 7.06812 8H10.9306C11.2681 8 11.5025 8.15312 11.6337 8.45938C11.765 8.76562 11.7119 9.0375 11.4744 9.275L9.52437 11.225C9.44937 11.3 9.36812 11.3563 9.28062 11.3938C9.19312 11.4313 9.09937 11.45 8.99937 11.45C8.89937 11.45 8.80562 11.4313 8.71812 11.3938C8.63062 11.3563 8.54937 11.3 8.47437 11.225Z" fill="#1C1B1F"/>
</g>
</svg>
