<svg width="20" height="20" viewBox="0 0 20 20" fill="none" xmlns="http://www.w3.org/2000/svg">
<g id="Frame" clip-path="url(#clip0_58_2564)">
<path id="Vector" d="M11.6667 2.72419C11.6667 2.14002 11.1933 1.66669 10.6092 1.66669H9.39166C8.80666 1.66669 8.33332 2.14002 8.33332 2.72419C8.33332 3.20585 8.00332 3.61919 7.55416 3.79585C7.48332 3.82419 7.41249 3.85419 7.34332 3.88419C6.90082 4.07585 6.37499 4.01752 6.03332 3.67669C5.83502 3.47853 5.56616 3.36722 5.28582 3.36722C5.00549 3.36722 4.73662 3.47853 4.53832 3.67669L3.67666 4.53835C3.4785 4.73665 3.36719 5.00552 3.36719 5.28585C3.36719 5.56619 3.4785 5.83506 3.67666 6.03335C4.01832 6.37502 4.07666 6.90002 3.88332 7.34335C3.85295 7.41312 3.82378 7.48341 3.79582 7.55419C3.61916 8.00335 3.20582 8.33335 2.72416 8.33335C2.13999 8.33335 1.66666 8.80669 1.66666 9.39085V10.6092C1.66666 11.1934 2.13999 11.6667 2.72416 11.6667C3.20582 11.6667 3.61916 11.9967 3.79582 12.4459C3.82416 12.5167 3.85416 12.5875 3.88332 12.6567C4.07582 13.0992 4.01749 13.625 3.67666 13.9667C3.4785 14.165 3.36719 14.4338 3.36719 14.7142C3.36719 14.9945 3.4785 15.2634 3.67666 15.4617L4.53832 16.3234C4.73662 16.5215 5.00549 16.6328 5.28582 16.6328C5.56616 16.6328 5.83502 16.5215 6.03332 16.3234C6.37499 15.9817 6.89999 15.9234 7.34332 16.1159C7.41249 16.1467 7.48332 16.1759 7.55416 16.2042C8.00332 16.3809 8.33332 16.7942 8.33332 17.2759C8.33332 17.86 8.80666 18.3334 9.39082 18.3334H10.6092C11.1933 18.3334 11.6667 17.86 11.6667 17.2759C11.6667 16.7942 11.9967 16.3809 12.4458 16.2034C12.5167 16.1759 12.5875 16.1467 12.6567 16.1167C13.0992 15.9234 13.625 15.9825 13.9658 16.3234C14.064 16.4216 14.1806 16.4995 14.309 16.5527C14.4373 16.6059 14.5748 16.6332 14.7137 16.6332C14.8526 16.6332 14.9902 16.6059 15.1185 16.5527C15.2469 16.4995 15.3635 16.4216 15.4617 16.3234L16.3233 15.4617C16.5215 15.2634 16.6328 14.9945 16.6328 14.7142C16.6328 14.4338 16.5215 14.165 16.3233 13.9667C15.9817 13.625 15.9233 13.1 16.1158 12.6567C16.1467 12.5875 16.1758 12.5167 16.2042 12.4459C16.3808 11.9967 16.7942 11.6667 17.2758 11.6667C17.86 11.6667 18.3333 11.1934 18.3333 10.6092V9.39169C18.3333 8.80752 17.86 8.33419 17.2758 8.33419C16.7942 8.33419 16.3808 8.00419 16.2033 7.55502C16.1754 7.48423 16.1462 7.41394 16.1158 7.34419C15.9242 6.90169 15.9825 6.37585 16.3233 6.03419C16.5215 5.83589 16.6328 5.56702 16.6328 5.28669C16.6328 5.00635 16.5215 4.73749 16.3233 4.53919L15.4617 3.67752C15.2634 3.47936 14.9945 3.36805 14.7142 3.36805C14.4338 3.36805 14.165 3.47936 13.9667 3.67752C13.625 4.01919 13.1 4.07752 12.6567 3.88502C12.5869 3.85436 12.5166 3.82491 12.4458 3.79669C11.9967 3.61919 11.6667 3.20502 11.6667 2.72419Z" stroke="#7E7E7E" stroke-width="1.5" stroke-linecap="round" stroke-linejoin="round"/>
<path id="Vector_2" d="M13.3333 10C13.3333 10.8841 12.9821 11.7319 12.357 12.357C11.7319 12.9822 10.884 13.3334 9.99999 13.3334C9.11593 13.3334 8.26809 12.9822 7.64297 12.357C7.01785 11.7319 6.66666 10.8841 6.66666 10C6.66666 9.11597 7.01785 8.26812 7.64297 7.643C8.26809 7.01788 9.11593 6.66669 9.99999 6.66669C10.884 6.66669 11.7319 7.01788 12.357 7.643C12.9821 8.26812 13.3333 9.11597 13.3333 10Z" stroke="#7E7E7E" stroke-width="1.5" stroke-linecap="round" stroke-linejoin="round"/>
</g>
<defs>
<clipPath id="clip0_58_2564">
<rect width="20" height="20" fill="white"/>
</clipPath>
</defs>
</svg>
