<svg width="118" height="119" viewBox="0 0 118 119" fill="none" xmlns="http://www.w3.org/2000/svg">
<rect x="0.487305" y="0.987" width="117.026" height="117.026" rx="16" fill="#48016D"/>
<mask id="mask0_15_626" style="mask-type:alpha" maskUnits="userSpaceOnUse" x="24" y="24" width="70" height="71">
<rect x="24.4873" y="24.987" width="69.026" height="69.026" fill="white"/>
</mask>
<g mask="url(#mask0_15_626)">
<path d="M43.1816 65.2522H47.6396C48.023 65.2522 48.3945 65.1683 48.754 65.0005C49.1136 64.8327 49.4131 64.629 49.6528 64.3893L65.7589 48.4271C66.0465 48.1395 66.1903 47.78 66.1903 47.3485C66.1903 46.9171 66.0465 46.5576 65.7589 46.27L60.7257 41.2369C60.4381 40.9493 60.0786 40.8055 59.6472 40.8055C59.2158 40.8055 58.8563 40.9493 58.5687 41.2369L42.6064 57.3429C42.3667 57.5826 42.163 57.8822 41.9952 58.2417C41.8275 58.6012 41.7436 58.9727 41.7436 59.3562V63.8141C41.7436 64.1976 41.8874 64.5331 42.175 64.8207C42.4626 65.1084 42.7982 65.2522 43.1816 65.2522ZM54.686 65.2522H73.3805C74.1954 65.2522 74.8785 64.9765 75.4297 64.4253C75.981 63.874 76.2566 63.191 76.2566 62.3761C76.2566 61.5612 75.981 60.8781 75.4297 60.3269C74.8785 59.7756 74.1954 59.5 73.3805 59.5H60.4381L54.686 65.2522ZM41.7436 76.7565L35.1286 83.3715C34.2178 84.2822 33.1753 84.486 32.0009 83.9826C30.8265 83.4793 30.2393 82.5806 30.2393 81.2863V36.4913C30.2393 34.9095 30.8025 33.5553 31.929 32.4289C33.0554 31.3024 34.4096 30.7392 35.9914 30.7392H82.0088C83.5906 30.7392 84.9448 31.3024 86.0712 32.4289C87.1977 33.5553 87.7609 34.9095 87.7609 36.4913V71.0043C87.7609 72.5862 87.1977 73.9403 86.0712 75.0668C84.9448 76.1933 83.5906 76.7565 82.0088 76.7565H41.7436ZM39.2989 71.0043H82.0088V36.4913H35.9914V74.2399L39.2989 71.0043Z" fill="white"/>
</g>
</svg>
