<svg width="20" height="20" viewBox="0 0 20 20" fill="none" xmlns="http://www.w3.org/2000/svg">
<mask id="mask0_114_9397" style="mask-type:alpha" maskUnits="userSpaceOnUse" x="0" y="0" width="20" height="20">
<rect width="20" height="20" fill="#D9D9D9"/>
</mask>
<g mask="url(#mask0_114_9397)">
<path d="M6.75 16C6.54167 16 6.36458 15.9271 6.21875 15.7812C6.07292 15.6354 6 15.4583 6 15.25C6 15.0417 6.07292 14.8646 6.21875 14.7188C6.36458 14.5729 6.54167 14.5 6.75 14.5H12C12.6944 14.5 13.2847 14.2569 13.7708 13.7708C14.2569 13.2847 14.5 12.6944 14.5 12C14.5 11.3056 14.2569 10.7153 13.7708 10.2292C13.2847 9.74306 12.6944 9.5 12 9.5H6.875L8.27083 10.9167C8.42361 11.0694 8.5 11.2465 8.5 11.4479C8.5 11.6493 8.42361 11.8264 8.27083 11.9792C8.11806 12.1319 7.94444 12.2083 7.75 12.2083C7.55556 12.2083 7.38194 12.1319 7.22917 11.9792L4.52083 9.27083C4.45139 9.20139 4.39931 9.12153 4.36458 9.03125C4.32986 8.94097 4.3125 8.84722 4.3125 8.75C4.3125 8.65278 4.32986 8.55903 4.36458 8.46875C4.39931 8.37847 4.45139 8.29861 4.52083 8.22917L7.20833 5.54167C7.36111 5.38889 7.53819 5.3125 7.73958 5.3125C7.94097 5.3125 8.11806 5.38889 8.27083 5.54167C8.42361 5.69444 8.50347 5.86806 8.51042 6.0625C8.51736 6.25694 8.44444 6.43056 8.29167 6.58333L6.875 8H12C13.1111 8 14.0556 8.38889 14.8333 9.16667C15.6111 9.94444 16 10.8889 16 12C16 13.1111 15.6111 14.0556 14.8333 14.8333C14.0556 15.6111 13.1111 16 12 16H6.75Z" fill="#D891FD"/>
</g>
</svg>
